<svg width="170" height="152" viewBox="0 0 170 152" fill="none" xmlns="http://www.w3.org/2000/svg">
<rect width="170" height="152" fill="#010101"/>
<path d="M44.4385 88.7383H21.1221V64.9092H44.4385V88.7383ZM40.6729 67.2861C40.1381 67.2863 39.7297 67.6449 39.5264 68.0801L36.5918 73.0234C36.3886 73.4802 36.2404 73.9917 36.2402 74.333C36.2402 74.637 36.2784 74.9043 36.3877 75.1514L39.5625 82.9023H27.2314C26.7885 82.9023 26.4221 82.4499 26.4219 82.0303V68.6709C26.3298 66.8469 23.7619 66.8468 23.7061 68.7256L23.7598 82.9023C23.7598 84.444 24.9258 85.6797 26.4219 85.6797H43.2354L39.1406 74.9648C39.0294 74.5648 38.9739 74.204 39.248 73.7295L41.9639 69.2236C42.0022 69.1291 42.0546 68.7301 42.0547 68.6182C42.001 67.8003 41.3749 67.2508 40.6729 67.29V67.2861ZM34.0156 67.292C33.3558 67.2959 32.6973 67.7589 32.6973 68.6709V78.2324C32.6973 79.6191 30.8682 79.5073 30.8682 78.2324V68.6709C30.8682 66.8468 28.2285 66.8468 28.2285 68.6709V78.3037C28.2287 80.5061 29.7804 81.9706 31.7539 81.9707C33.7275 81.9707 35.3367 80.5061 35.3369 78.3037V68.6689C35.3369 67.7374 34.6754 67.2862 34.0156 67.29V67.292Z" fill="#6F92E8"/>
<path fill-rule="evenodd" clip-rule="evenodd" d="M53.2271 67.6743V77.5931C53.2271 80.0723 52.9797 81.4491 51.0078 81.4491C50.6376 81.4491 50.3902 81.4491 50.02 81.3118V85.5818C50.7604 85.8583 51.2534 85.8583 51.871 85.8583C57.422 85.8583 57.6694 81.5884 57.6694 79.1073V71.9443H60.8765V85.5818H65.3188V67.6743H53.229H53.2271Z" fill="#6F92E8"/>
<path fill-rule="evenodd" clip-rule="evenodd" d="M66.7964 67.6743L72.8423 80.6254L70.6211 85.5838H75.4317L82.5862 67.6743H77.7756L75.1862 75.2512L72.1019 67.6743H66.7964Z" fill="#6F92E8"/>
<path fill-rule="evenodd" clip-rule="evenodd" d="M83.9419 85.5838H88.3842V77.8696L92.9493 85.5838H98.625L92.3336 76.3535L98.5003 67.6743H93.1967L88.3842 75.2512V67.6743H83.9419V85.5838Z" fill="#6F92E8"/>
<path fill-rule="evenodd" clip-rule="evenodd" d="M105.903 86.1352C111.824 86.1352 114.538 81.4514 114.538 76.6283C114.538 71.8053 111.824 67.2607 105.903 67.2607C99.9815 67.2607 97.3921 71.9445 97.3921 76.6283C97.3921 81.3121 100.104 86.1352 105.903 86.1352ZM105.903 81.8652C103.929 81.8652 101.955 80.0745 101.955 76.6303C101.955 73.1861 103.927 71.5326 105.903 71.5326C107.999 71.5326 109.975 73.1861 109.975 76.6303C109.975 80.0745 108.001 81.8652 105.903 81.8652Z" fill="#6F92E8"/>
<path fill-rule="evenodd" clip-rule="evenodd" d="M116.759 67.6746V85.5841H121.078L127.245 74.8396V85.5841H131.565V67.6746H127.245L121.078 78.4191V67.6746H116.759ZM124.284 66.7096C126.134 66.7096 127.985 66.0212 128.849 63.9539L126.259 62.8516C125.889 64.2285 124.778 64.3677 124.285 64.3677C123.915 64.3677 122.682 64.2285 122.436 62.8516L119.847 63.9539C120.585 66.0212 122.559 66.7096 124.287 66.7096H124.284Z" fill="#6F92E8"/>
<path fill-rule="evenodd" clip-rule="evenodd" d="M136.251 67.6743V77.5931C136.251 80.0723 136.004 81.4491 134.032 81.4491C133.662 81.4491 133.414 81.4491 133.044 81.3118V85.5818C133.784 85.8583 134.277 85.8583 134.895 85.8583C140.446 85.8583 140.693 81.5884 140.693 79.1073V71.9443H143.9V85.5818H148.343V67.6743H136.253H136.251Z" fill="#6F92E8"/>
</svg>
