<svg width="170" height="152" viewBox="0 0 170 152" fill="none" xmlns="http://www.w3.org/2000/svg">
<rect width="170" height="152" fill="#010101"/>
<path fill-rule="evenodd" clip-rule="evenodd" d="M51.3661 49.1915C50.8552 50.0796 48.9783 53.5118 48.0254 57.3112C46.9865 61.5447 46.8487 65.2907 47.2103 68.9899C47.5662 72.6892 48.8979 76.4819 48.8979 76.4819C49.6097 78.4785 50.6888 80.6152 51.3833 81.6636C52.405 80.1211 54.7527 75.5271 55.4874 69.5108C55.895 66.1721 55.9064 63.2407 54.9708 58.4797C54.0352 53.7121 51.6933 49.8326 51.3718 49.1982L51.3661 49.1915ZM51.3431 51.7423C51.5613 52.1362 53.0422 55.2078 53.8113 58.433C54.5748 61.6582 54.7355 64.7498 54.701 66.5727C54.6666 68.389 54.4772 70.3054 54.2361 71.4539C54.3222 69.4774 54.1098 66.6796 53.7138 64.5027C53.3234 62.3259 52.2214 58.6934 51.3374 57.0107C50.5223 58.6133 49.5236 61.7517 49.0012 64.4827C48.4731 67.2137 48.4444 70.5324 48.4444 71.5207C48.3067 70.686 47.9565 67.6945 48.0541 64.6964C48.1345 62.2258 48.6396 59.7084 48.9094 58.5398C49.9483 54.6403 51.1193 52.1362 51.3431 51.7423ZM45.8327 65.0169V78.3783C43.6401 78.3783 41.4589 79.3465 39.7828 81.2963C39.3867 81.7571 39.0308 82.2645 38.7266 82.7854C36.4765 86.6649 36.8324 91.9801 39.7828 95.4123C41.4589 97.3621 43.6401 98.3303 45.8327 98.3303C48.0254 98.3303 50.2124 97.3688 51.8827 95.439C51.8942 95.4323 51.8942 95.4056 51.8999 95.3923C51.9057 95.3856 51.9114 95.3789 51.9171 95.3722C53.5932 93.4224 53.5932 90.264 51.9171 88.3142C50.2411 86.3644 47.526 86.3644 45.85 88.3142C45.8442 88.3209 45.8385 88.3276 45.8327 88.3343V82.7854H56.9856V94.9182C54.1959 98.377 50.2296 100.554 45.8327 100.554C37.4007 100.554 30.5586 92.5944 30.5586 82.7854C30.5586 72.9763 37.3949 65.0169 45.8327 65.0169ZM51.3833 68.7495C51.6416 69.2637 52.4854 71.4138 52.5887 74.3385C52.6576 77.2098 51.8368 79.46 51.3661 80.4884C50.9069 79.4801 50.1894 77.5436 50.1205 74.5722C50.1033 71.7009 51.0906 69.257 51.3833 68.7429V68.7495ZM58.9372 82.7854V100.574H61.9794V89.4093H62.0884L63.6669 100.574H66.1179L67.6792 89.4093H67.7882V100.574H70.8534V82.7854H66.8813L64.8953 95.2854L62.9092 82.7854H58.9372ZM74.6935 82.7854C72.5582 82.7854 72.4319 84.7151 72.4319 85.9571V97.4021C72.4319 98.6441 72.5582 100.574 74.6935 100.574H77.2191C79.3601 100.574 79.5036 98.6441 79.5036 97.4021V85.9571C79.5036 84.7151 79.3601 82.7854 77.2191 82.7854H74.6935ZM83.3436 82.7854C81.2026 82.7854 81.0591 84.7151 81.0591 85.9571V89.3492C81.0591 90.2907 81.2428 91.0186 82.0062 91.6796L84.2678 93.6895C84.727 94.0968 85.0829 94.424 85.0829 95.2654V98.0298C85.0829 98.3303 84.882 98.6107 84.6007 98.6107C84.4285 98.6107 84.1185 98.4839 84.1185 98.0298V94.7045H81.0591V97.4021C81.0591 98.6441 81.2026 100.574 83.3436 100.574H85.8692C88.0103 100.574 88.1538 98.6441 88.1538 97.4021V94.0768C88.1538 92.8348 87.7003 92.2339 87.0058 91.5728L84.8131 89.4761C84.3367 89.022 84.1243 88.9152 84.1243 87.9002V85.3295C84.1243 84.8754 84.4342 84.7485 84.6064 84.7485C84.8877 84.7485 85.0886 85.029 85.0886 85.3295V88.3076H88.148V85.9571C88.148 84.7151 88.0045 82.7854 85.8635 82.7854H83.3379H83.3436ZM89.7093 82.7854V100.574H96.0348V98.6107H92.7687V92.2205H95.9028V90.2574H92.7687V84.7485H95.9028V82.7854H89.7036H89.7093ZM97.223 82.7854V100.574H100.265V92.0001H100.374L101.694 100.574H104.754V82.7854H101.694V91.3591H101.585L100.265 82.7854H97.223ZM106.315 82.7854V100.574H112.641V98.6107H109.375V92.2205H112.509V90.2574H109.375V84.7485H112.509V82.7854H106.309H106.315ZM113.835 82.7854V100.574H116.9V93.99H117.101L118.157 100.574H121.291L119.787 93.6428C120.878 93.1353 120.9 91.9668 120.9 91.486V85.9571C120.9 84.7151 120.774 82.7854 118.633 82.7854H113.829H113.835ZM124.746 82.7854C122.611 82.7854 122.485 84.7151 122.485 85.9571V97.4021C122.485 98.6441 122.611 100.574 124.746 100.574H127.272C129.413 100.574 129.556 98.6441 129.556 97.4021V91.8532H126.032V93.8164H126.497V98.0298C126.497 98.3303 126.296 98.6107 126.015 98.6107C125.843 98.6107 125.533 98.4839 125.533 98.0298V85.3361C125.533 84.8821 125.837 84.7552 126.015 84.7552C126.296 84.7552 126.497 85.0356 126.497 85.3361V88.4878H129.556V85.9638C129.556 84.7218 129.413 82.7921 127.272 82.7921H124.746V82.7854ZM133.396 82.7854C131.255 82.7854 131.112 84.7151 131.112 85.9571V97.4021C131.112 98.6441 131.255 100.574 133.396 100.574H135.922C138.063 100.574 138.184 98.6441 138.184 97.4021V85.9571C138.184 84.7151 138.057 82.7854 135.922 82.7854H133.396ZM75.9563 84.7485C76.2433 84.7485 76.4384 85.029 76.4384 85.3295V98.0231C76.4384 98.3236 76.2375 98.6041 75.9563 98.6041C75.7841 98.6041 75.4741 98.4772 75.4741 98.0231V85.3295C75.4741 84.8754 75.7841 84.7485 75.9563 84.7485ZM116.894 84.7485H117.284C117.611 84.7485 117.841 85.0757 117.841 85.6366V91.1454C117.841 91.7063 117.611 92.0335 117.284 92.0335H116.894V84.7552V84.7485ZM134.659 84.7485C134.941 84.7485 135.141 85.029 135.141 85.3295V98.0231C135.141 98.3236 134.941 98.6041 134.659 98.6041C134.481 98.6041 134.177 98.4772 134.177 98.0231V85.3295C134.177 84.8754 134.487 84.7485 134.659 84.7485Z" fill="#6F92E8"/>
</svg>
