<svg width="170" height="152" viewBox="0 0 170 152" fill="none" xmlns="http://www.w3.org/2000/svg">
<rect width="170" height="152" fill="#010101"/>
<path fill-rule="evenodd" clip-rule="evenodd" d="M133.331 67.9259C134.595 67.8771 135.86 67.8771 137.126 67.9216C139.044 73.342 141.087 78.6966 142.956 84.1424C141.805 84.1848 140.652 84.1466 139.498 84.1593C138.572 84.2166 137.87 83.3732 137.089 82.907C135.878 81.9937 134.553 81.2966 133.414 80.2498C134.898 80.2202 136.381 80.3176 137.865 80.2075C137.256 78.0652 136.522 75.978 135.843 73.8675C135.667 73.2975 135.509 72.7105 135.237 72.1935C133.805 76.1221 132.68 80.2117 131.269 84.1509C130.012 84.1551 128.756 84.1848 127.499 84.1339C129.402 78.7093 131.432 73.3505 133.335 67.9238L133.331 67.9259ZM87.1505 67.8983C89.4513 67.9026 91.7522 67.892 94.0549 67.9026C95.5905 67.9873 97.2543 68.6336 98.202 70.1805C99.2305 72.0727 99.2287 74.7257 98.1705 76.601C97.8089 77.3426 97.2017 77.8194 96.6892 78.3936C97.6018 80.3685 98.7952 82.1442 99.6833 84.1381C98.36 84.1848 97.0349 84.1742 95.7116 84.1381C94.6937 82.1717 93.7144 80.1736 92.7386 78.1796C92.3875 77.4634 91.9856 76.7811 91.7101 76.0161C92.721 75.9462 93.8495 76.1772 94.7305 75.4207C95.7099 74.66 95.6098 72.6194 94.5673 71.9922C93.4055 71.24 92.0453 71.5832 90.7869 71.49C90.6904 75.7131 90.7992 79.9383 90.7343 84.1636C89.5321 84.1551 88.3316 84.1721 87.1276 84.1466C87.1276 78.7305 87.089 73.3123 87.147 67.8983H87.1505ZM76.4095 67.9004C77.5608 67.8962 78.7139 67.8899 79.8652 67.8941C79.9635 68.9345 79.9214 69.9813 79.9267 71.0238C79.9267 74.0794 79.9267 77.1328 79.9214 80.1884C81.9888 80.3473 84.0668 80.2032 86.1396 80.2562C86.0009 80.9682 85.6201 81.553 85.3235 82.176C85.0058 82.7905 84.7583 83.4601 84.3985 84.0407C84.1897 84.2144 83.9141 84.1318 83.6772 84.1657C81.2447 84.136 78.8104 84.1763 76.3762 84.1466C76.3095 79.1098 76.3832 74.0688 76.3411 69.032C76.3323 68.6527 76.3569 68.2734 76.4095 67.9004ZM65.6265 67.9195C66.8884 67.8665 68.1555 67.8814 69.4192 67.9195C71.3216 73.3441 73.3575 78.703 75.253 84.1339C73.9665 84.1466 72.6765 84.2187 71.3936 84.0915C70.3844 80.7647 69.277 77.4782 68.2169 74.1705C68.0046 73.4903 67.801 72.8059 67.5237 72.1617C66.7866 74.0052 66.2618 75.9631 65.6195 77.8554C65.3825 78.6352 65.0578 79.3874 64.9701 80.2202C66.4268 80.2943 67.8835 80.2308 69.3402 80.2414C68.7698 80.8241 68.0941 81.214 67.4517 81.6611C66.576 82.2586 65.7072 82.8752 64.8349 83.4834C64.3909 83.78 63.9557 84.2017 63.4169 84.1572C62.2094 84.1403 61.0002 84.1932 59.7944 84.1085C61.6916 78.686 63.6959 73.3187 65.6265 67.9132V67.9195ZM117.044 69.3583C115.488 71.1043 115.572 74.6155 117.367 76.086C119.078 77.6986 121.4 77.5545 123.303 78.6564C123.993 79.0166 123.829 80.2604 123.155 80.5105C121.411 81.286 119.473 80.6249 117.885 79.6311C117.657 79.5167 117.294 79.22 117.115 79.5739C116.621 80.5613 116.158 81.57 115.695 82.5786C116.325 83.1973 117.106 83.5173 117.864 83.8394C119.544 84.5238 121.355 84.7188 123.112 84.4475C124.373 84.1784 125.683 83.6169 126.544 82.4175C127.899 80.5528 127.722 77.2578 125.995 75.8085C124.372 74.2976 122.213 74.357 120.375 73.4543C119.919 73.2572 119.452 72.7571 119.659 72.1151C120.11 71.3205 120.981 71.1827 121.718 71.2103C123.191 71.1933 124.593 71.793 125.956 72.3948C126.327 71.2717 126.781 70.1868 127.129 69.0511C125.344 68.0233 123.368 67.4131 121.383 67.4915C119.823 67.483 118.183 68.0149 117.044 69.3562V69.3583ZM106.618 71.2802C105.428 71.5875 104.35 72.6236 103.946 74.0264C103.313 75.9737 103.611 78.5017 105.027 79.8409C106.67 81.5403 109.487 81.2203 110.756 79.0696C111.835 77.1095 111.753 74.2701 110.44 72.4923C109.452 71.3078 107.958 70.8946 106.618 71.2781V71.2802ZM106.305 67.5699C108.162 67.3516 110.142 67.5423 111.777 68.7141C113.173 69.655 114.285 71.2272 114.756 73.0813C115.317 75.3571 115.24 77.8957 114.385 80.0528C113.517 82.2374 111.735 83.7631 109.794 84.278C107.953 84.759 105.959 84.7166 104.203 83.8351C102.7 83.1719 101.428 81.7797 100.738 80.0379C99.8658 77.8533 99.7939 75.2554 100.426 72.9669C101.244 69.9389 103.748 67.9216 106.305 67.572V67.5699Z" fill="#6F92E8"/>
<path fill-rule="evenodd" clip-rule="evenodd" d="M26.9756 70.6842H42.4903L34.7329 65.2766L26.9756 70.6842Z" fill="#6F92E8"/>
<path fill-rule="evenodd" clip-rule="evenodd" d="M26.9756 70.6862V81.4972L34.7329 86.9069L26.9756 70.6862Z" fill="#6F92E8"/>
<path fill-rule="evenodd" clip-rule="evenodd" d="M34.7334 86.909L42.4907 81.5014V70.6862L34.7334 86.909Z" fill="#6F92E8"/>
<path fill-rule="evenodd" clip-rule="evenodd" d="M42.4907 81.4978L50.2481 86.9097L58.0089 81.4978H42.4907Z" fill="#6F92E8"/>
<path fill-rule="evenodd" clip-rule="evenodd" d="M50.2481 65.2766L42.4907 70.6842V81.4974L50.2481 65.2766Z" fill="#6F92E8"/>
<path fill-rule="evenodd" clip-rule="evenodd" d="M58.0086 81.4974V70.6821L50.2495 65.2766L58.0086 81.4974Z" fill="#6F92E8"/>
</svg>
