<svg width="170" height="152" viewBox="0 0 170 152" fill="none" xmlns="http://www.w3.org/2000/svg">
<rect width="170" height="152" fill="#010101"/>
<path fill-rule="evenodd" clip-rule="evenodd" d="M36.3718 60.4122C45.1812 60.4122 52.3175 67.3958 52.3175 75.9967C52.3175 84.5977 45.1721 91.5812 36.3718 91.5812C27.5716 91.5812 20.4217 84.6065 20.4217 76.0011C20.4217 67.3958 27.5625 60.4122 36.3718 60.4122ZM36.3718 60.0001C27.3267 60.0001 20 67.1609 20 75.9967C20 80.2418 21.7274 84.3141 24.7968 87.314C31.1896 93.562 41.5541 93.562 47.9514 87.314C54.3441 81.066 54.3441 70.9363 47.9514 64.6839C44.8864 61.6751 40.7198 59.9868 36.3718 60.0001Z" fill="#6F92E8"/>
<path fill-rule="evenodd" clip-rule="evenodd" d="M40.461 67.1659L40.8917 68.0255L41.8575 68.1585L41.1592 68.8276L41.327 69.7714L40.461 69.3239L39.5905 69.7714L39.7583 68.8276L39.0601 68.1585L40.0303 68.0255L40.461 67.1659Z" fill="#6F92E8"/>
<path fill-rule="evenodd" clip-rule="evenodd" d="M40.461 70.2314L40.8917 71.0866L41.8575 71.2284L41.1592 71.8931L41.327 72.8369L40.461 72.3894L39.5905 72.8369L39.7583 71.8931L39.0601 71.2284L40.0303 71.0866L40.461 70.2314Z" fill="#6F92E8"/>
<path fill-rule="evenodd" clip-rule="evenodd" d="M36.3722 64.9456C42.6154 64.9456 47.6797 69.8908 47.6797 75.997C47.6797 82.1032 42.6199 87.0484 36.3722 87.0484C30.1245 87.0484 25.0647 82.1032 25.0647 75.997C25.0647 73.068 26.2571 70.2586 28.3744 68.1848C30.4918 66.111 33.3708 64.9412 36.3677 64.95L36.3722 64.9456ZM36.3722 64.5335C29.8933 64.5335 24.6431 69.6693 24.6431 75.997C24.6431 82.3248 29.8978 87.4605 36.3722 87.4605C42.8466 87.4605 48.1013 82.3248 48.1013 75.997C48.1013 69.6648 42.8466 64.5335 36.3722 64.5335Z" fill="#6F92E8"/>
<path fill-rule="evenodd" clip-rule="evenodd" d="M28.9367 84.522L28.7236 84.4688L29.4491 81.7392L31.2581 79.435L31.7659 76.4572L31.1901 75.4513L31.1946 73.1338L32.582 71.6405V70.9404L32.1059 70.6612L32.1195 69.9168L31.3623 69.3895L32.1603 69.0438L32.523 68.3747L30.4284 66.292L30.578 66.1458L32.7815 68.3348L32.3099 69.1989L31.7885 69.4293L32.3371 69.8104L32.3235 70.5504L32.7905 70.8252V71.7203L31.4122 73.2091L31.4077 75.3982L31.988 76.4218L31.453 79.5236L29.6485 81.8323L28.9367 84.522Z" fill="#6F92E8"/>
<path fill-rule="evenodd" clip-rule="evenodd" d="M50.2867 78.2477C50.2368 78.487 49.9965 78.6421 49.7608 78.5933C49.5159 78.5446 49.3572 78.3142 49.4071 78.0793C49.457 77.84 49.6882 77.6849 49.933 77.7337C50.1733 77.7824 50.3366 78.0084 50.2867 78.2477Z" fill="#6F92E8"/>
<path fill-rule="evenodd" clip-rule="evenodd" d="M22.3856 78.2477C22.4355 78.487 22.6758 78.6421 22.9116 78.5933C23.1564 78.5446 23.3151 78.3142 23.2652 78.0793C23.2153 77.84 22.9841 77.6849 22.7393 77.7337C22.4944 77.7824 22.3358 78.0084 22.3856 78.2477Z" fill="#6F92E8"/>
<path fill-rule="evenodd" clip-rule="evenodd" d="M23.5411 74.2109C23.4413 74.3394 23.3053 74.4413 23.1557 74.4989C22.8338 74.6141 22.4711 74.5565 22.2036 74.3482C22.0766 74.2419 21.986 74.1089 21.9316 73.9538C21.8771 73.7899 21.8635 73.6126 21.8953 73.4443C21.9179 73.298 21.9724 73.1562 22.0585 73.0277C22.1356 72.9125 22.2399 72.815 22.3577 72.753L22.5935 73.1119C22.3577 73.236 22.2535 73.5063 22.3351 73.75C22.3668 73.8342 22.4212 73.8962 22.4847 73.9494C22.5572 74.0026 22.6479 74.038 22.7386 74.0558C22.8293 74.0735 22.9245 74.0691 23.0151 74.038C23.1013 74.0159 23.1693 73.9627 23.2237 73.8962C23.2781 73.8253 23.3144 73.7456 23.3325 73.657C23.3643 73.4974 23.3098 73.3335 23.1965 73.2094L23.5365 72.9435C23.6318 73.041 23.6998 73.1651 23.727 73.3025C23.7678 73.4443 23.7768 73.5949 23.7496 73.7411C23.7179 73.9095 23.6499 74.0735 23.5411 74.2109Z" fill="#6F92E8"/>
<path fill-rule="evenodd" clip-rule="evenodd" d="M23.9855 71.4277L23.7407 72.1323L24.0218 72.3716L23.854 72.8501L22.4077 71.5474L22.5755 71.0821L24.5386 70.9137L24.3709 71.4056L23.9855 71.4233V71.4277ZM23.5865 71.4499L22.9699 71.4853L23.4369 71.8797L23.5865 71.4499Z" fill="#6F92E8"/>
<path fill-rule="evenodd" clip-rule="evenodd" d="M23.269 69.5054L23.8493 69.4522L23.5682 68.9515L23.8493 68.4375L24.3299 69.3459L25.4634 69.2263L25.1823 69.7403L24.543 69.8112L24.8422 70.3695L24.5702 70.8702L24.0579 69.8998L23.0015 70.0106L23.269 69.5054Z" fill="#6F92E8"/>
<path fill-rule="evenodd" clip-rule="evenodd" d="M26.0663 67.8655L25.6084 68.4504L25.7988 68.765L25.4814 69.1683L24.5293 67.4844L24.8285 67.09L26.7418 67.5287L26.4245 67.9452L26.0663 67.8566V67.8655ZM25.6764 67.7591L25.0824 67.5952L25.3998 68.1092L25.6764 67.7591Z" fill="#6F92E8"/>
<path fill-rule="evenodd" clip-rule="evenodd" d="M26.9962 64.8958L28.2249 66.1809L27.8576 66.5132L26.9055 65.5162L26.5292 65.8618L26.7196 66.0789C26.8556 66.2296 26.9917 66.3936 27.105 66.5708C27.1821 66.6816 27.2229 66.819 27.2365 66.9519C27.232 67.076 27.1776 67.1912 27.0733 67.2754C27.0143 67.3285 26.9554 67.3684 26.8828 67.4083L26.6199 67.0937C26.6199 67.0937 26.6607 67.0715 26.6743 67.0538C26.7242 67.0139 26.7468 66.9563 26.7332 66.8943C26.7151 66.819 26.6834 66.7481 26.638 66.6904C26.5655 66.593 26.4884 66.4955 26.4113 66.4024L25.9443 65.8707L27.0007 64.8958H26.9962Z" fill="#6F92E8"/>
<path fill-rule="evenodd" clip-rule="evenodd" d="M27.6353 64.4045L28.0569 64.1386L28.6327 64.9983L28.6826 63.7398L29.077 63.4784L30.0699 64.9584L29.6438 65.2199L29.068 64.3602L29.0226 65.6187L28.6236 65.8757L27.6353 64.4045Z" fill="#6F92E8"/>
<path fill-rule="evenodd" clip-rule="evenodd" d="M31.3711 62.4412L32.0829 64.0586L31.6159 64.258L31.3394 63.6244L30.7046 63.8947L30.9812 64.5239L30.5142 64.7233L29.7979 63.1059L30.2648 62.9109L30.5278 63.5136L31.1671 63.2433L30.8996 62.6406L31.3711 62.4412Z" fill="#6F92E8"/>
<path fill-rule="evenodd" clip-rule="evenodd" d="M32.9041 63.7438C32.7408 63.704 32.6003 63.6286 32.4779 63.509C32.36 63.3938 32.2739 63.2387 32.2376 63.0792C32.1968 62.9196 32.1968 62.7513 32.2512 62.5917C32.3011 62.4411 32.3872 62.2993 32.5141 62.1929C32.6456 62.0821 32.8089 61.9979 32.9811 61.9581C33.1308 61.9226 33.2804 61.9093 33.4391 61.9359C33.5751 61.9581 33.7111 62.0112 33.8154 62.0999L33.5705 62.4499C33.4436 62.3436 33.2713 62.3081 33.1081 62.3436C33.0174 62.3613 32.9358 62.41 32.8678 62.4677C32.7998 62.5253 32.759 62.5962 32.7363 62.6804C32.7136 62.769 32.7136 62.862 32.7363 62.9507C32.759 63.0393 32.8043 63.119 32.8633 63.1899C32.9177 63.2564 32.9947 63.2963 33.0718 63.3184C33.1625 63.3406 33.2532 63.3406 33.3438 63.3184C33.5071 63.2786 33.6386 63.1722 33.702 63.0216L34.0874 63.2254C34.0285 63.3495 33.9378 63.4602 33.829 63.54C33.7111 63.6286 33.566 63.6907 33.4209 63.7261C33.2532 63.7793 33.0718 63.7793 32.9041 63.7394V63.7438Z" fill="#6F92E8"/>
<path fill-rule="evenodd" clip-rule="evenodd" d="M35.188 62.7517L34.9567 62.7694L35.0157 63.4385L34.5124 63.4784L34.3628 61.7281L34.8661 61.6882L34.925 62.3662L35.1698 62.3485L35.5371 61.635L36.0721 61.5863L35.5779 62.4814L36.2217 63.3411L35.6504 63.3854L35.188 62.7517Z" fill="#6F92E8"/>
<path fill-rule="evenodd" clip-rule="evenodd" d="M37.732 63.0925L36.9703 63.0349L36.8025 63.3628L36.2856 63.3273L37.2106 61.6257L37.7093 61.6612L38.3667 63.4735L37.8408 63.4337L37.732 63.0925ZM37.6141 62.7158L37.4282 62.1353L37.1516 62.6848L37.6141 62.7158Z" fill="#6F92E8"/>
<path fill-rule="evenodd" clip-rule="evenodd" d="M40.484 62.1712L40.0714 63.8816L39.5862 63.7664L39.6951 63.3366L39.423 63.2701L39.0331 63.6335L38.5117 63.5094L38.9878 63.0929C38.8926 63.022 38.8155 62.9245 38.7792 62.8137C38.7429 62.6985 38.7384 62.5656 38.7656 62.4504C38.7883 62.3263 38.8563 62.2155 38.947 62.1269C39.0376 62.0383 39.151 61.9806 39.2779 61.9585C39.423 61.9363 39.5726 61.9408 39.7087 61.9762L40.4885 62.1712H40.484ZM39.2643 62.5656C39.2417 62.6365 39.2507 62.7162 39.287 62.7827C39.3369 62.8403 39.4004 62.8802 39.4774 62.8935L39.7721 62.9644L39.8991 62.4371L39.6089 62.3706C39.4185 62.3218 39.3051 62.3883 39.2598 62.5656H39.2643Z" fill="#6F92E8"/>
<path fill-rule="evenodd" clip-rule="evenodd" d="M43.1686 63.3326C43.2638 63.4611 43.3137 63.6118 43.3228 63.7713C43.3364 63.9353 43.291 64.0992 43.2139 64.2454C43.1414 64.3961 43.0281 64.5202 42.892 64.6132C42.7606 64.7019 42.6064 64.7462 42.4432 64.755C42.2754 64.7595 42.1031 64.724 41.9535 64.6487C41.8175 64.5822 41.6906 64.4892 41.5863 64.3784C41.4956 64.272 41.4321 64.148 41.4004 64.015L41.822 63.8998C41.8583 64.0638 41.9671 64.1967 42.1167 64.2765C42.2074 64.3252 42.3072 64.3341 42.4024 64.3163C42.4976 64.2986 42.5883 64.2454 42.6563 64.1701L42.0759 63.8865L42.2392 63.5586L42.8195 63.8378C42.8376 63.7447 42.824 63.6517 42.7832 63.563C42.7334 63.4788 42.6653 63.4124 42.5792 63.3681C42.4296 63.2972 42.2482 63.2972 42.0986 63.3681L41.9445 62.9693C42.0714 62.9116 42.2165 62.8806 42.3525 62.8851C42.5067 62.8895 42.6563 62.9338 42.7968 63.0003C42.9419 63.0712 43.0779 63.182 43.1731 63.3238L43.1686 63.3326Z" fill="#6F92E8"/>
<path fill-rule="evenodd" clip-rule="evenodd" d="M45.6034 64.7777L44.5516 66.2046L44.139 65.921L44.547 65.3626L43.9848 64.9638L43.5768 65.5222L43.1597 65.2341L44.207 63.8029L44.6196 64.0953L44.2297 64.6315L44.7919 65.0303L45.1863 64.4897L45.6034 64.7777Z" fill="#6F92E8"/>
<path fill-rule="evenodd" clip-rule="evenodd" d="M46.2374 67.2628L45.9608 67.5375L44.9316 66.5405L46.2011 65.2909L47.2076 66.2569L46.9311 66.5361L46.2873 65.9113L46.0742 66.1195L46.6409 66.669L46.3689 66.9304L45.7976 66.381L45.5664 66.6114L46.2374 67.2628Z" fill="#6F92E8"/>
<path fill-rule="evenodd" clip-rule="evenodd" d="M48.3592 67.8167C48.3909 67.9319 48.3818 68.056 48.341 68.1668C48.2277 68.4903 47.8604 68.6586 47.5295 68.5479C47.4932 68.5346 47.4569 68.5168 47.4206 68.4991C47.2937 68.4282 47.1849 68.3307 47.1033 68.2111L46.9174 67.9629L46.5411 68.2377L46.2373 67.8389L47.6745 66.7842L48.1642 67.4268C48.2549 67.5375 48.3184 67.666 48.3546 67.8078L48.3592 67.8167ZM47.6065 68.1003C47.7562 68.118 47.8967 68.0161 47.9194 67.8699C47.9194 67.7857 47.8876 67.7059 47.8332 67.6483L47.6655 67.4268L47.2393 67.7369L47.407 67.9585C47.4569 68.0294 47.5204 68.0737 47.6065 68.1003Z" fill="#6F92E8"/>
<path fill-rule="evenodd" clip-rule="evenodd" d="M49.2346 69.8994L48.8447 69.1948L47.6251 69.8506L47.3848 69.4252L48.9626 68.5789L49.5973 69.7132L49.2346 69.8994Z" fill="#6F92E8"/>
<path fill-rule="evenodd" clip-rule="evenodd" d="M49.8646 70.2679L50.0324 70.7332L49.0394 71.0832L50.2863 71.4111L50.4495 71.8498L48.7584 72.448L48.5815 71.9916L49.579 71.6416L48.3322 71.3136L48.1689 70.8705L49.8646 70.2679Z" fill="#6F92E8"/>
<path fill-rule="evenodd" clip-rule="evenodd" d="M50.9207 74.0594L49.1525 74.3829L49.0618 73.9043L49.5061 73.8201L49.4562 73.5498L48.9575 73.346L48.8623 72.832L49.4426 73.089C49.4653 72.9738 49.5288 72.8586 49.6149 72.7788C49.7101 72.6946 49.8235 72.6459 49.9504 72.6281C50.0774 72.606 50.2089 72.6104 50.3267 72.6592C50.4401 72.7079 50.5444 72.7832 50.6079 72.8896C50.694 73.0048 50.7439 73.1422 50.762 73.284L50.9116 74.0683L50.9207 74.0594ZM50.0592 73.12C49.9822 73.1244 49.9142 73.1687 49.8688 73.2308C49.8326 73.3017 49.819 73.377 49.8371 73.4523L49.8915 73.7448L50.4356 73.6473L50.3812 73.3593C50.3449 73.1643 50.2361 73.089 50.0592 73.12Z" fill="#6F92E8"/>
<path fill-rule="evenodd" clip-rule="evenodd" d="M23.3378 82.5189C23.3016 82.4037 23.288 82.2841 23.3016 82.1689L23.7096 82.1334C23.696 82.3373 23.7459 82.5455 23.8411 82.7272C23.9363 82.8912 24.027 82.9488 24.1177 82.9045C24.1675 82.8823 24.1902 82.8291 24.1766 82.7759C24.163 82.6873 24.1403 82.5943 24.1177 82.5056C24.0814 82.3949 24.0497 82.2841 24.0315 82.1733C24.0134 82.0802 24.027 81.9872 24.0542 81.8986C24.095 81.8011 24.1675 81.7213 24.2627 81.677C24.3534 81.6238 24.4622 81.6017 24.5665 81.6105C24.6799 81.6238 24.7932 81.6681 24.8839 81.739C24.9972 81.8321 25.0924 81.9429 25.165 82.0802C25.2239 82.1777 25.2647 82.2841 25.301 82.3949C25.3327 82.4923 25.3509 82.5987 25.3418 82.705L24.9338 82.7538C24.9338 82.5854 24.8975 82.4126 24.8159 82.2619C24.7841 82.191 24.7297 82.1379 24.6663 82.0935C24.6255 82.0714 24.571 82.0714 24.5302 82.0935C24.4894 82.1157 24.4622 82.1689 24.4758 82.2176C24.4894 82.3062 24.5121 82.3949 24.5438 82.4835C24.5801 82.5943 24.6119 82.705 24.63 82.8158C24.6436 82.9089 24.6345 83.0019 24.6073 83.0906C24.5665 83.188 24.494 83.2722 24.3988 83.3121C24.3081 83.3653 24.1993 83.383 24.0995 83.3786C23.9862 83.3653 23.8728 83.321 23.7822 83.2501C23.6688 83.157 23.5736 83.0462 23.5011 82.9177C23.4285 82.7937 23.3741 82.6652 23.3378 82.5322V82.5189Z" fill="#6F92E8"/>
<path fill-rule="evenodd" clip-rule="evenodd" d="M25.3364 84.8761L24.8694 84.2911L24.5112 84.3975L24.1938 83.9987L26.1026 83.5245L26.4018 83.9056L25.4769 85.6072L25.146 85.204L25.3364 84.8805V84.8761ZM25.5404 84.5348L25.8532 84.0075L25.2593 84.1759L25.5404 84.5348Z" fill="#6F92E8"/>
<path fill-rule="evenodd" clip-rule="evenodd" d="M26.8828 86.0284L26.6017 86.0549L26.3024 86.3829L25.9307 86.0461L27.1367 84.7477L27.5175 85.0757L27.0143 85.6207L28.0344 85.5321L28.447 85.8999L27.3679 85.9929L27.2636 87.2292L26.8238 86.8393L26.8828 86.0284Z" fill="#6F92E8"/>
<path fill-rule="evenodd" clip-rule="evenodd" d="M30.1879 87.0171L29.2222 88.4971L28.7915 88.2268L29.1678 87.6552L28.5829 87.2829L28.2111 87.8634L27.7759 87.5931L28.7416 86.1131L29.1768 86.3834L28.8096 86.9373L29.3945 87.3095L29.7572 86.7468L30.1879 87.0171Z" fill="#6F92E8"/>
<path fill-rule="evenodd" clip-rule="evenodd" d="M31.2442 89.0242L30.5414 88.7361L30.2784 89.002L29.7979 88.807L31.226 87.4821L31.6885 87.6682L31.7384 89.5914L31.2487 89.392V89.0242H31.2442ZM31.2487 88.6254V88.0227L30.8225 88.457L31.2487 88.6254Z" fill="#6F92E8"/>
<path fill-rule="evenodd" clip-rule="evenodd" d="M32.7631 88.0402L33.2528 88.1554L32.9309 89.4803L33.7606 89.6753L33.6653 90.0608L32.3369 89.7506L32.7631 88.0402Z" fill="#6F92E8"/>
<path fill-rule="evenodd" clip-rule="evenodd" d="M34.5218 88.3995L35.0296 88.4571L34.8075 90.203L34.3042 90.1454L34.5218 88.3995Z" fill="#6F92E8"/>
<path fill-rule="evenodd" clip-rule="evenodd" d="M37.315 88.5096L37.3422 90.2688L36.9251 90.2777L36.1135 89.3516L36.1271 90.291L35.6284 90.2954L35.5967 88.5362L36.0229 88.5318L36.8344 89.4579L36.8163 88.5185L37.315 88.5096Z" fill="#6F92E8"/>
<path fill-rule="evenodd" clip-rule="evenodd" d="M40.6155 89.2944L40.7153 89.6622L39.3143 90.0078L38.8745 88.3063L40.2392 87.9695L40.3344 88.3373L39.4594 88.5544L39.5319 88.8424L40.3072 88.6563L40.4024 89.0152L39.6271 89.2058L39.7042 89.516L40.6155 89.2944Z" fill="#6F92E8"/>
<path fill-rule="evenodd" clip-rule="evenodd" d="M42.3026 87.1458L43.0235 88.7543L42.6381 88.9183L41.5318 88.3733L41.9127 89.2329L41.4502 89.4235L40.7339 87.8105L41.1147 87.6554L42.2301 88.2004L41.8492 87.3364L42.3026 87.1458Z" fill="#6F92E8"/>
<path fill-rule="evenodd" clip-rule="evenodd" d="M44.7734 87.2608L44.9865 87.5843L43.7669 88.3509L42.7876 86.8753L43.9755 86.122L44.1886 86.4455L43.4269 86.9285L43.5856 87.1811L44.2566 86.7512L44.4697 87.0614L43.7987 87.4913L43.9755 87.7616L44.7734 87.2608Z" fill="#6F92E8"/>
<path fill-rule="evenodd" clip-rule="evenodd" d="M45.8623 86.2646L45.6537 86.4463L45.9711 86.7919L45.5948 87.1243L44.4023 85.8171L45.0144 85.2765C45.1232 85.179 45.2502 85.1081 45.3862 85.0593C45.4995 85.0195 45.6265 85.0195 45.7444 85.0461C45.9847 85.117 46.166 85.3119 46.2114 85.5424C46.2295 85.6531 46.2159 85.7728 46.1706 85.8747L46.837 86.0342L46.429 86.3931L45.8668 86.2602L45.8623 86.2646ZM45.4723 85.4847C45.3862 85.4892 45.3091 85.5335 45.2502 85.5911L45.0416 85.7772L45.3953 86.1583L45.6038 85.9766C45.6718 85.9234 45.7172 85.8525 45.7353 85.7728C45.7398 85.7019 45.7172 85.631 45.6628 85.5778C45.6129 85.5113 45.5494 85.4847 45.4723 85.4847Z" fill="#6F92E8"/>
<path fill-rule="evenodd" clip-rule="evenodd" d="M47.3528 84.0213L47.6339 83.6757L48.2142 84.1321C48.2097 84.2606 48.1779 84.3891 48.1235 84.5088C48.0691 84.6328 48.0056 84.7481 47.9195 84.85C47.8107 84.9829 47.6656 85.0981 47.5069 85.1646C47.3573 85.2311 47.1895 85.2532 47.0263 85.2311C46.6863 85.1779 46.3961 84.9563 46.2692 84.6373C46.2102 84.4866 46.1966 84.3227 46.2329 84.1631C46.2692 83.9947 46.3462 83.8308 46.4596 83.6934C46.5548 83.5782 46.6772 83.4719 46.8087 83.401C46.9266 83.3345 47.0671 83.3035 47.2122 83.2946L47.2349 83.7244C47.0671 83.7289 46.913 83.8086 46.8042 83.9283C46.6228 84.1233 46.6409 84.4201 46.8404 84.5974C46.854 84.6107 46.8722 84.6195 46.8903 84.6328C46.9629 84.6904 47.0445 84.7303 47.1351 84.7436C47.2213 84.7613 47.3074 84.748 47.3936 84.7215C47.4797 84.686 47.5568 84.6328 47.6112 84.5575C47.6701 84.4866 47.7109 84.398 47.7381 84.3094L47.3528 84.0213Z" fill="#6F92E8"/>
<path fill-rule="evenodd" clip-rule="evenodd" d="M48.7266 82.4483L49.2888 82.7585L49.0395 83.1927L48.4682 82.8826L47.1353 82.918L47.4028 82.4483L48.2279 82.4306L47.8199 81.726L48.0602 81.3051L48.7266 82.4483Z" fill="#6F92E8"/>
<path fill-rule="evenodd" clip-rule="evenodd" d="M36 66.6161L36.4987 66.1243L37.1153 67.1656L36.8523 67.4315L37.546 70.0459L37.0609 71.1227L39.5636 79.4312H38.9606L38.1218 78.2791H37.0065L35.9501 81.3898L36.671 82.5552L36.7616 83.3173L37.5369 83.951L37.7863 84.3542L37.5369 85.3911H37.2286L36.8977 84.4606L35.7415 84.4517L35.2247 85.8786H34.9436L34.8075 84.753L35.0705 83.9599L34.8982 82.0544L35.3108 81.4739L35.2745 80.2864L34.9572 79.7635L35.5919 75.771L35.2428 75.1684L35.8005 73.932L34.667 71.9735L35.0478 69.1995L34.9118 68.1892L35.4876 67.9189L35.9047 68.3443L36.3717 67.8923L36 66.6161Z" fill="#6F92E8"/>
<path fill-rule="evenodd" clip-rule="evenodd" d="M60.4191 74.4541C59.8025 74.1395 59.2856 73.6609 58.9274 73.0804C58.5602 72.4778 58.3743 71.7909 58.3879 71.0864C58.3743 70.3818 58.5602 69.695 58.932 69.0923C59.2901 68.5118 59.807 68.0377 60.4236 67.7187C61.0856 67.3863 61.82 67.2135 62.5636 67.2268C63.2074 67.2135 63.8467 67.3376 64.4406 67.5857C64.9802 67.8161 65.4608 68.1706 65.828 68.6226L64.4588 69.8279C63.9691 69.2474 63.3752 68.9594 62.6724 68.9594C62.287 68.955 61.9107 69.0436 61.5752 69.2253C61.2578 69.3937 60.9949 69.6595 60.8271 69.9741C60.4735 70.6698 60.4735 71.4852 60.8271 72.1853C60.9994 72.4999 61.2578 72.7614 61.5752 72.9342C61.9107 73.1159 62.287 73.2045 62.6724 73.2001C63.3752 73.2001 63.9736 72.912 64.4588 72.3315L65.828 73.5413C65.4608 73.9932 64.9802 74.3522 64.4406 74.5782C63.8467 74.8263 63.2119 74.9459 62.5636 74.9371C61.8155 74.9504 61.081 74.7864 60.4145 74.4497L60.4191 74.4541Z" fill="#6F92E8"/>
<path fill-rule="evenodd" clip-rule="evenodd" d="M72.0044 73.3635H68.7944L68.1959 74.8036H66.0151L69.3611 67.3813H71.4649L74.8245 74.7947H72.5983L72.0044 73.359V73.3635ZM71.3787 71.8125L70.3994 69.4374L69.4201 71.8125H71.3742H71.3787Z" fill="#6F92E8"/>
<path fill-rule="evenodd" clip-rule="evenodd" d="M77.2812 67.3739L78.6368 69.3812L79.9788 67.3739H82.477L79.9788 70.9189L82.6901 74.8006H80.1602L78.6368 72.6071L77.1179 74.8006H74.647L77.3492 71.0119L74.8238 67.3739H77.2812Z" fill="#6F92E8"/>
<path fill-rule="evenodd" clip-rule="evenodd" d="M88.5161 73.3643H85.3061L84.7076 74.8044H82.5269L85.8729 67.391H87.9766L91.3362 74.8044H89.11L88.5161 73.3643ZM87.8859 71.8089L86.9066 69.4338L85.9273 71.8089H87.8814H87.8859Z" fill="#6F92E8"/>
<path fill-rule="evenodd" clip-rule="evenodd" d="M99.4831 67.3821V74.7955H97.3794V69.0438H95.1986L95.1487 70.2446C95.1306 71.1131 95.049 71.9816 94.8858 72.828C94.7498 73.4883 94.5095 74.0067 94.1649 74.3701C93.8248 74.7334 93.3443 74.9151 92.7186 74.9151C92.3876 74.9107 92.0657 74.8664 91.7393 74.7866L91.8571 73.0673C91.9524 73.0894 92.0476 73.1027 92.1518 73.1027C92.4103 73.116 92.6596 72.992 92.8047 72.7748C92.977 72.4957 93.0904 72.181 93.1266 71.862C93.1992 71.3568 93.2445 70.8428 93.2536 70.3332L93.3624 67.3776H99.4786L99.4831 67.3821Z" fill="#6F92E8"/>
<path fill-rule="evenodd" clip-rule="evenodd" d="M101.215 67.3813H103.324V71.7461L106.452 67.3902H108.479V74.8036H106.37V70.4522L103.251 74.7992H101.215V67.3813Z" fill="#6F92E8"/>
<path fill-rule="evenodd" clip-rule="evenodd" d="M117.429 67.3813V74.7992H115.28V71.9012H112.355V74.7992H110.215V67.3813H112.355V70.1686H115.28V67.3813H117.429Z" fill="#6F92E8"/>
<path fill-rule="evenodd" clip-rule="evenodd" d="M120.721 74.4538C120.104 74.1392 119.587 73.6606 119.229 73.0802C118.862 72.4775 118.676 71.7907 118.69 71.0861C118.676 70.3816 118.862 69.6947 119.229 69.0921C119.587 68.5116 120.104 68.0375 120.721 67.7184C121.378 67.3861 122.117 67.2132 122.861 67.2265C123.505 67.2221 124.144 67.3418 124.738 67.5899C125.277 67.8203 125.758 68.1748 126.125 68.6268L124.756 69.8321C124.266 69.2516 123.672 68.9636 122.97 68.9636C122.584 68.9591 122.208 69.0478 121.868 69.2294C121.551 69.3978 121.288 69.6637 121.111 69.9783C120.757 70.674 120.757 71.4894 121.111 72.1895C121.283 72.5041 121.541 72.7655 121.868 72.9384C122.203 73.12 122.58 73.2087 122.97 73.2042C123.672 73.2042 124.271 72.9162 124.756 72.3357L126.125 73.541C125.758 73.993 125.277 74.3519 124.738 74.5779C124.144 74.8261 123.509 74.9457 122.861 74.9368C122.117 74.9413 121.378 74.7773 120.721 74.445V74.4538Z" fill="#6F92E8"/>
<path fill-rule="evenodd" clip-rule="evenodd" d="M130.264 71.9543H129.294V74.7992H127.149V67.3813H129.294V70.2616H130.319L132.123 67.3813H134.385L132.01 70.9573L134.404 74.7992H131.987L130.264 71.9543Z" fill="#6F92E8"/>
<path fill-rule="evenodd" clip-rule="evenodd" d="M140.256 73.3643H137.046L136.448 74.8044H134.262L137.608 67.391H139.712L143.081 74.8H140.845L140.251 73.3643H140.256ZM139.626 71.8089L138.646 69.4338L137.667 71.8089H139.621H139.626Z" fill="#6F92E8"/>
<path fill-rule="evenodd" clip-rule="evenodd" d="M150 67.3813V74.7947H147.896V72.9292H146.726L145.479 74.7947H143.217L144.754 72.6279C144.278 72.4329 143.874 72.1006 143.598 71.6796C143.321 71.2409 143.185 70.7225 143.194 70.2085C143.181 69.6811 143.321 69.1583 143.607 68.7018C143.892 68.2676 144.301 67.9264 144.79 67.727C145.361 67.4921 145.978 67.3769 146.595 67.3858H150V67.3813ZM145.366 70.1686C145.343 70.4832 145.461 70.7978 145.688 71.0238C145.906 71.2188 146.209 71.3163 146.613 71.3163H147.891V69.0342H146.631C145.783 69.0342 145.366 69.4108 145.366 70.1641V70.1686Z" fill="#6F92E8"/>
<path fill-rule="evenodd" clip-rule="evenodd" d="M63.5518 78.3231C64.1458 78.6377 64.6445 79.1162 64.98 79.6967C65.6646 80.9375 65.6646 82.4352 64.98 83.6759C64.6445 84.2564 64.1503 84.7306 63.5518 85.0496C62.9216 85.382 62.2144 85.5548 61.4935 85.5415C60.8451 85.5548 60.1968 85.4307 59.6028 85.1826C59.0588 84.9521 58.5782 84.5976 58.2109 84.1457L59.5666 82.9359C60.0698 83.5164 60.6774 83.8045 61.3847 83.8045C61.8063 83.8177 62.2189 83.6892 62.5499 83.4367C62.8808 83.1797 63.1121 82.8252 63.2163 82.4264H60.4688V80.8799H63.1937C63.0849 80.4943 62.8582 80.1576 62.5363 79.9183C62.2053 79.679 61.7972 79.5549 61.3847 79.5682C60.6728 79.5682 60.0064 79.8917 59.5666 80.4367L58.2109 79.2315C58.5827 78.7795 59.0588 78.4294 59.6028 78.199C60.2013 77.9464 60.8451 77.8223 61.498 77.8312C62.2098 77.8268 62.9216 77.9951 63.5564 78.3275L63.5518 78.3231Z" fill="#6F92E8"/>
<path fill-rule="evenodd" clip-rule="evenodd" d="M73.9761 77.9758V85.3892H71.827V82.5001H68.9027V85.3892H66.7627V77.9758H68.9072V80.7586H71.8361V77.9758H73.9761Z" fill="#6F92E8"/>
<path fill-rule="evenodd" clip-rule="evenodd" d="M81.8015 83.7674V85.3892H75.708V77.9758H81.6655V79.5932H77.8389V80.8428H81.2167V82.4115H77.8389V83.7674H81.8015Z" fill="#6F92E8"/>
<path fill-rule="evenodd" clip-rule="evenodd" d="M88.3933 78.3092C89.7489 78.872 90.3837 80.4096 89.8033 81.739C89.5313 82.3594 89.0235 82.8512 88.3933 83.1171C87.8311 83.3519 87.219 83.4627 86.6069 83.4494H85.2831V85.3903H83.1431V77.9769H86.6024C87.2145 77.9636 87.8266 78.0744 88.3978 78.3092H88.3933ZM87.4684 81.5174C87.6951 81.318 87.822 81.0211 87.8039 80.7198C87.822 80.4141 87.6951 80.1216 87.4684 79.9178C87.2462 79.7228 86.9107 79.6297 86.4709 79.6297H85.2785V81.7966H86.4709C86.9107 81.7966 87.2462 81.7035 87.4684 81.513V81.5174Z" fill="#6F92E8"/>
<path fill-rule="evenodd" clip-rule="evenodd" d="M96.5998 79.6375H93.1631V85.3892H91.0503V77.9758H96.6179L96.5998 79.6375Z" fill="#6F92E8"/>
<path fill-rule="evenodd" clip-rule="evenodd" d="M97.6836 77.9758H99.7919V82.3361L102.92 77.9803H104.938V85.3937H102.83V81.0467L99.7057 85.3892H97.6836V77.9758Z" fill="#6F92E8"/>
<path fill-rule="evenodd" clip-rule="evenodd" d="M113.031 77.9758V85.3892H110.927V83.5237H109.757L108.511 85.3892H106.248L107.785 83.2224C107.309 83.0274 106.906 82.6951 106.629 82.2741C106.352 81.8265 106.216 81.317 106.225 80.8029C106.212 80.2756 106.357 79.7527 106.638 79.2963C106.924 78.8621 107.332 78.5209 107.821 78.3215C108.393 78.0866 109.005 77.9714 109.621 77.9803H113.035L113.031 77.9758ZM108.388 80.7586C108.365 81.0732 108.483 81.3879 108.71 81.6138C108.919 81.8088 109.231 81.9063 109.635 81.9063H110.914V79.6242H109.667C108.814 79.6242 108.388 80.0009 108.388 80.7542V80.7586Z" fill="#6F92E8"/>
</svg>
