<svg width="170" height="152" viewBox="0 0 170 152" fill="none" xmlns="http://www.w3.org/2000/svg">
<rect width="170" height="152" fill="#010101"/>
<path fill-rule="evenodd" clip-rule="evenodd" d="M58.5874 69.5539C59.537 69.5539 60.49 69.5539 61.4431 69.5429C62.7242 71.3054 63.8972 73.1556 65.2517 74.8596C66.4072 73.0825 67.5453 71.2944 68.7252 69.5356C69.6154 69.5503 70.5091 69.5429 71.4028 69.5685C71.3784 73.8431 71.3714 78.1176 71.4028 82.3958C70.4707 82.425 69.5351 82.4177 68.6031 82.4324C68.5716 79.7557 68.6135 77.0791 68.5891 74.4062C67.4057 76.1284 66.2536 77.8799 65.0073 79.5546C63.7646 77.9165 62.6439 76.1796 61.4396 74.5086C61.4535 77.1486 61.4291 79.7887 61.4605 82.4287H58.5804C58.549 78.1359 58.542 73.8431 58.5804 69.5539H58.5874ZM74.4889 69.532C75.4419 69.5466 76.3949 69.5429 77.348 69.5539C77.348 72.1866 77.2886 74.823 77.3689 77.4558C79.0551 74.7572 80.9227 72.1866 82.6822 69.5429C83.513 69.5466 84.3404 69.5429 85.1713 69.5429C85.2027 73.8358 85.1922 78.1286 85.1782 82.4214C84.2147 82.4214 83.2547 82.4324 82.2947 82.4214C82.2877 79.8472 82.3471 77.2729 82.2563 74.6987C80.5457 77.2766 78.7688 79.8033 77.0827 82.3958C76.2134 82.4287 75.3441 82.425 74.4749 82.4397C74.433 78.1395 74.4225 73.8321 74.4889 69.532ZM89.7933 69.5393C92.4953 69.5649 95.2009 69.5393 97.9064 69.5612C97.9238 73.8504 97.9378 78.1395 97.8994 82.4287C96.9464 82.4287 95.9968 82.4287 95.0473 82.4287C95.0368 79.0793 95.0542 75.7262 95.0298 72.3768C94.1675 72.3878 93.3087 72.3951 92.4465 72.406C92.258 74.5744 92.0694 76.761 91.5318 78.8745C91.1862 80.1507 90.6416 81.4963 89.5385 82.2459C88.7495 82.5933 87.8628 82.4762 87.0285 82.5091C87.011 81.5328 87.0215 80.5565 87.1018 79.5839C87.9466 79.3682 88.5785 78.71 88.7914 77.8251C89.5664 75.1412 89.535 72.3037 89.7933 69.5356V69.5393ZM101.013 69.5356C101.966 69.5429 102.923 69.5356 103.876 69.5539C103.862 71.3493 103.859 73.1447 103.876 74.94C105.244 73.1922 106.526 71.3712 107.793 69.5429C108.931 69.5356 110.072 69.5356 111.214 69.5539C109.779 71.6235 108.131 73.514 106.651 75.5434C108.337 77.8068 109.975 80.1141 111.608 82.4214C110.373 82.4433 109.137 82.4397 107.901 82.4141C106.581 80.4212 105.175 78.4906 103.893 76.4685C103.838 78.4394 103.845 80.4139 103.883 82.3885C102.919 82.4287 101.959 82.4214 100.996 82.4397C100.964 78.1395 100.968 73.8358 101.01 69.5356H101.013ZM116.768 69.4698C114.237 69.8172 112.031 72.0148 111.65 74.6695C111.361 76.5343 111.647 78.5783 112.733 80.1251C115.222 83.5696 120.947 83.5257 123.391 80.041C125.405 77.2327 124.944 72.6474 122.113 70.618C120.598 69.4223 118.597 69.1809 116.768 69.4698ZM117.1 72.3073C118.395 71.9782 119.941 72.3585 120.758 73.525C122.399 75.5068 121.47 79.4449 118.782 79.7704C116.618 80.3262 114.492 78.198 114.593 75.9529C114.523 74.3257 115.627 72.7754 117.1 72.3073ZM126.85 69.5393C127.726 69.5393 128.61 69.4844 129.486 69.5832C131.022 71.0824 131.943 73.141 133.347 74.7755C134.694 73.163 135.703 71.2688 136.922 69.5466C137.833 69.5503 138.747 69.5503 139.666 69.5576C139.634 73.8467 139.638 78.1359 139.662 82.425C138.702 82.4287 137.742 82.425 136.785 82.4324C136.744 79.7484 136.765 77.0682 136.771 74.3842C135.588 76.1211 134.457 77.9055 133.158 79.551C131.947 77.8836 130.77 76.1833 129.657 74.4391C129.549 77.1011 129.636 79.7631 129.615 82.425C128.669 82.4324 127.723 82.4287 126.78 82.425C126.854 78.1322 126.745 73.8394 126.85 69.5429V69.5393Z" fill="#6F92E8"/>
<path fill-rule="evenodd" clip-rule="evenodd" d="M29.0453 65.0239C29.0241 64.4318 29.4745 63.886 30.031 63.8083C32.2692 63.6177 34.6928 63.7953 36.5901 65.1812C37.6888 65.9805 38.7417 66.9482 39.3105 68.2435C38.1287 68.2435 36.9487 68.2638 35.7669 68.2379C35.6097 68.4729 35.3252 68.6857 35.3959 69.0132C35.5231 69.8532 35.9824 70.5823 36.4488 71.2595C37.5811 72.786 38.9537 74.0886 40.2185 75.4893C38.5067 75.5096 36.7632 75.6373 35.0797 75.2228C32.4352 74.5086 30.2059 72.2771 29.4092 69.5405C28.941 68.0862 29.0205 66.5338 29.0453 65.0239ZM45.9774 64.2949C47.8587 63.5825 49.8937 63.7491 51.8564 63.8268C51.8104 65.7566 52.0842 67.7568 51.4501 69.6164C50.6163 72.44 48.2473 74.677 45.4916 75.2839C43.9088 75.6114 42.2906 75.4819 40.6902 75.4615C41.2643 74.3162 41.8773 73.1505 42.7888 72.2568C44.0165 71.1781 45.4156 70.338 46.6804 69.3111C47.0408 69.0206 47.3323 68.6542 47.6132 68.2842C45.8096 69.6812 43.5449 70.2511 41.8278 71.7776C41.3844 72.1532 41.0594 72.6491 40.729 73.1264C40.7379 72.0773 40.6849 71.0097 40.9445 69.9846C41.577 67.3627 43.5749 65.2164 45.9774 64.2949ZM35.1698 76.2942C36.8392 75.9093 38.5597 76.0444 40.2538 76.0814C39.5402 76.7494 38.8742 77.4691 38.2294 78.2093C37.2455 79.2843 36.1961 80.3556 35.6132 81.7396C35.4259 82.1412 35.4118 82.5926 35.4047 83.0312C35.705 83.2162 36.0566 83.2847 36.4028 83.2828C37.3815 83.2865 38.3601 83.2699 39.3388 83.2902C38.7223 84.6002 37.6359 85.5716 36.5265 86.4117C34.6275 87.7328 32.2533 87.9104 30.0433 87.7217C29.4516 87.6792 29.0241 87.0889 29.04 86.4876C29.0347 85.1664 28.9516 83.8231 29.2625 82.5297C29.9427 79.5285 32.3098 77.0306 35.1698 76.2942ZM40.6725 76.0703C42.2465 76.0536 43.8328 75.9352 45.3927 76.2183C48.1325 76.7753 50.4767 78.9494 51.4165 81.6897C52.0012 83.2773 51.8634 85.0036 51.8546 86.6689C51.8546 87.2129 51.4094 87.6514 50.9095 87.7143C48.6148 87.9215 46.1169 87.7421 44.1932 86.2692C43.1827 85.4643 42.0875 84.5817 41.6441 83.2847C42.7305 83.2588 43.8169 83.3069 44.9033 83.2699C45.1895 83.3124 45.3697 83.0497 45.5075 82.8313C45.5393 82.0968 45.1736 81.4269 44.8203 80.82C43.6208 79.0733 42.1016 77.6079 40.6725 76.0703Z" fill="#6F92E8"/>
</svg>
