<svg width="170" height="152" viewBox="0 0 170 152" fill="none" xmlns="http://www.w3.org/2000/svg">
<rect width="170" height="152" fill="#010101"/>
<path fill-rule="evenodd" clip-rule="evenodd" d="M43.6553 66.0482C45.6931 66.0556 47.729 66.0482 49.7668 66.0519C49.7631 67.7886 49.7668 69.5253 49.7668 71.2601C49.7742 71.8446 49.7521 72.4291 49.7797 73.0136V73.0266C49.7797 73.0266 49.7926 73.0173 49.7963 73.0136C50.1574 72.6971 50.4817 72.3379 50.8115 71.9879C52.4587 70.3238 54.0727 68.6262 55.7162 66.9584C56.0165 66.6625 56.2947 66.346 56.595 66.0501C58.5075 66.0445 60.42 66.0594 62.3307 66.0426C60.3574 68.0269 58.3822 70.0055 56.4034 71.9842C57.7005 75.2268 58.9718 78.4824 60.2597 81.7306C60.339 81.8869 60.3574 82.0842 60.4845 82.2108C62.2551 76.8257 64.011 71.4351 65.7706 66.0463C67.2925 66.0519 68.8144 66.0501 70.3363 66.0463C72.024 71.1838 73.7228 76.3157 75.4105 81.4532C75.4455 81.537 75.4455 81.6431 75.5284 81.7008C75.5376 76.4832 75.5321 71.2639 75.5284 66.0463C77.9955 66.0538 80.4626 66.0463 82.9296 66.0501C83.8048 69.019 84.6984 71.9824 85.581 74.9494C85.8187 75.7759 86.0914 76.5949 86.3051 77.4288C86.3825 77.3414 86.4119 77.2259 86.4469 77.1198C87.6593 73.4287 88.8864 69.7412 90.0951 66.0482C92.4516 66.0519 94.8081 66.0519 97.1628 66.0482C97.1518 71.2397 97.1665 76.4311 97.1555 81.6226C97.1757 81.6226 97.2126 81.6263 97.2328 81.6263C97.6492 80.2675 98.1172 78.9254 98.5502 77.5703C99.5433 74.5567 100.524 71.5375 101.52 68.5257C101.778 67.6993 102.071 66.884 102.324 66.0556C103.851 66.0463 105.378 66.0556 106.904 66.0519C108.583 71.2601 110.283 76.459 111.967 81.6654C112.107 82.0749 112.223 82.4919 112.378 82.8976C114.237 78.4545 116.083 74.0057 117.931 69.5569C116.054 69.5588 114.178 69.5551 112.301 69.5588C112.301 68.3898 112.306 67.219 112.301 66.0501C116.905 66.0538 121.511 66.0501 126.117 66.0501C123.835 71.679 121.574 77.3172 119.3 82.9498C121.568 82.946 123.836 82.9516 126.106 82.946C126.095 83.8563 126.053 84.7684 126.035 85.6786C126.011 85.9243 126.06 86.1812 125.979 86.4194C124.487 86.3934 122.994 86.4399 121.502 86.4287C119.967 86.425 118.431 86.4325 116.896 86.4418C113.734 86.4362 110.572 86.4622 107.411 86.4529C107.169 85.6972 106.919 84.9433 106.681 84.1857C104.665 84.1857 102.652 84.1839 100.636 84.1857C100.391 84.9415 100.14 85.6953 99.9008 86.4529C96.9602 86.4529 94.0196 86.4492 91.0789 86.4548C91.0826 82.8046 91.0863 79.1525 91.0789 75.5023C91.0642 75.519 91.0347 75.5507 91.02 75.5674C89.9237 79.1972 88.8145 82.8232 87.7201 86.4529C86.0821 86.4474 84.4423 86.4529 82.8044 86.4529C81.8352 83.3946 80.8716 80.3345 79.9025 77.2762C79.7293 76.6768 79.4989 76.0924 79.3571 75.4855H79.2926C79.2981 79.1413 79.2889 82.799 79.2981 86.4567C76.4717 86.4492 73.6435 86.4567 70.8172 86.4529C70.5924 85.6916 70.3271 84.9433 70.0968 84.1857C68.0792 84.1857 66.0636 84.1857 64.046 84.1857C63.7936 84.9396 63.5559 85.6991 63.3035 86.4548C60.6061 86.4511 57.9106 86.4529 55.215 86.4548C53.9677 83.2178 52.7184 79.9808 51.4729 76.7438C50.9497 77.2241 50.4706 77.7527 49.9455 78.233C49.881 78.3111 49.7631 78.3726 49.7705 78.4898C49.7686 81.1442 49.7705 83.7986 49.7705 86.4548C47.7327 86.4567 45.6967 86.4511 43.659 86.4585C43.6645 79.6551 43.6645 72.8516 43.659 66.0482H43.6553ZM67.0401 74.9122C66.4431 76.8406 65.7853 78.7504 65.1865 80.677C66.4413 80.6751 67.696 80.6807 68.9507 80.6733C68.398 78.9794 67.8489 77.2874 67.2943 75.5953C67.2096 75.3683 67.1764 75.1151 67.0419 74.9122H67.0401ZM103.624 74.9345C103.486 75.452 103.3 75.9565 103.144 76.4702C102.69 77.8719 102.237 79.2716 101.789 80.6751C103.039 80.6788 104.29 80.6844 105.541 80.6733C104.916 78.7616 104.291 76.8518 103.68 74.9364H103.624V74.9345Z" fill="#6F92E8"/>
</svg>
