<svg width="170" height="152" viewBox="0 0 170 152" fill="none" xmlns="http://www.w3.org/2000/svg">
<rect width="170" height="152" fill="#010101"/>
<path d="M78.8826 74.3075L86.3611 66.8651L88.4058 68.9463C89.4139 70.1768 89.4184 71.4958 88.3799 72.6998C87.1669 74.1066 85.6817 75.3765 84.4694 76.7969C84.1006 77.3356 84.6023 77.957 85.1897 77.6114C87.2175 75.7608 89.0612 73.7145 90.9892 71.76L94.9903 75.7466L85.884 84.7844L77.1484 76.0438L78.8832 74.3069L78.8826 74.3075ZM85.1229 70.9325C85.6448 71.1405 86.026 71.5507 86.2652 72.0468C86.5154 71.7206 87.3316 71.1838 87.3141 70.7652C87.2998 70.4229 86.6412 69.8338 86.3637 69.6258L85.1223 70.9332L85.1229 70.9325ZM82.7204 75.8061C83.2494 75.144 84.1524 74.4393 84.6095 73.7882C84.8273 73.4788 84.8435 73.2559 84.6464 72.9343C84.2367 72.2651 83.6636 72.4369 83.1528 72.8697C82.0909 73.7682 81.147 74.9961 80.089 75.9204L80.0164 76.0438L85.9281 81.9766L88.9173 79.0002C89.3588 78.5622 89.574 78.0842 89.0878 77.5681C88.6871 77.1418 88.2956 77.1205 87.8632 77.49C86.7028 78.4795 85.9456 80.19 84.0545 79.4342C82.6121 78.8581 81.6261 77.1754 82.7204 75.8061ZM90.9094 77.0372L92.3181 75.7046L91.0728 74.4729L89.7432 75.7531C90.2093 76.0786 90.7655 76.4617 90.9094 77.0365V77.0372Z" fill="#6F92E8"/>
<path d="M127.618 72.1438V75.7287L129.685 72.1438H132.334L132.31 79.5558H129.514V76.0678L127.448 79.5558H124.798V72.1438H127.618Z" fill="#6F92E8"/>
<path d="M41.6946 71.9646C43.7775 71.765 45.9285 72.4885 46.5424 74.6633C47.3807 77.6339 45.218 79.872 42.2644 79.7978C36.8455 79.6608 36.8286 72.431 41.6953 71.9646H41.6946ZM42.1309 74.3371C41.5001 74.4295 41.0444 75.0005 40.9815 75.6141C40.7514 77.8619 43.6654 77.9071 43.8437 76.1405C43.9558 75.0276 43.3179 74.1633 42.1309 74.3371Z" fill="#6F92E8"/>
<path d="M63.3791 71.9646C66.2815 71.7069 68.6283 73.2668 68.3417 76.3763C67.9061 81.1083 59.3825 81.0431 59.789 75.4603C59.9297 73.5264 61.4752 72.1338 63.3791 71.9646ZM63.7655 74.3358C62.0871 74.5987 62.2116 77.6784 64.373 77.3632C66.0455 77.1197 65.9126 73.9986 63.7655 74.3358Z" fill="#6F92E8"/>
<path d="M35.3602 72.1445C36.5083 72.2452 37.493 72.9422 37.3718 74.1972C37.3005 74.9342 36.822 75.2301 36.2321 75.5311C36.1809 75.5569 36.1401 75.5052 36.1627 75.6318C37.8489 75.8999 38.2703 78.0818 36.9368 79.0914C36.6425 79.3143 35.9663 79.5558 35.6039 79.5558H30.8145V72.1438H35.3602V72.1445ZM33.8283 74.9542C35.0185 75.1248 35.001 73.8019 33.8283 73.9369V74.9542ZM33.8283 76.6982V77.764C34.249 77.786 34.898 77.7705 34.8902 77.2059C34.8824 76.6414 34.227 76.6724 33.8283 76.6982Z" fill="#6F92E8"/>
<path d="M72.1413 74.5902C72.1406 74.605 72.0966 74.6412 72.0914 74.6858L72.1893 74.711L73.7704 72.1434H76.9548L74.5257 75.6553L77.052 79.5554H73.6732L72.1419 76.891V79.4824L72.0693 79.5548H69.1274V72.1428H72.0693L72.1419 72.2151C72.1134 73.0038 72.1808 73.8015 72.1419 74.5889L72.1413 74.5902Z" fill="#6F92E8"/>
<path d="M121.71 72.1445C122.058 72.1748 122.565 72.3143 122.867 72.4933C123.853 73.0765 124.032 74.5021 123.119 75.2436C122.909 75.4141 122.663 75.4671 122.463 75.6318C124.406 75.9154 124.636 78.576 122.837 79.3226C122.64 79.404 122.148 79.5558 121.953 79.5558H117.163V72.1438H121.709L121.71 72.1445ZM120.13 74.9542C120.427 74.9568 120.805 75.0079 120.976 74.7081C121.287 74.1649 120.57 73.7716 120.13 74.0099V74.9542ZM120.13 76.6982V77.764C120.563 77.7815 121.225 77.7983 121.204 77.2066C121.183 76.6091 120.57 76.6937 120.13 76.6982Z" fill="#6F92E8"/>
<path d="M112.594 77.2789V79.4828L112.521 79.5552H109.579V72.2162L109.652 72.1438H113.882C117.261 72.1438 117.252 77.2789 113.882 77.2789H112.593H112.594ZM112.594 75.3412C113.017 75.3502 113.52 75.3605 113.568 74.8347C113.633 74.1262 113.203 74.0493 112.594 74.0816V75.3412Z" fill="#6F92E8"/>
<path d="M108.704 72.1438V74.3238H106.516V74.9052H108.436L108.509 74.9775V76.6976H106.516V77.3758H108.704V79.5558H103.501V72.1438H108.704Z" fill="#6F92E8"/>
<path d="M102.723 75.0509L102.027 74.5574C101.14 74.0556 99.6693 74.3411 99.4774 75.474C99.13 77.5235 101.368 77.8878 102.627 76.7697L102.723 76.8188V79.2895C102.349 79.5446 101.829 79.6842 101.381 79.7442C98.3611 80.1499 95.9638 77.9227 96.6691 74.8559C97.2636 72.2689 100.539 71.1566 102.724 72.5079V75.0516L102.723 75.0509Z" fill="#6F92E8"/>
<path d="M53.2762 75.0514L52.8062 74.6716C51.7961 74.0231 50.2571 74.2259 50.04 75.5817C49.7631 77.3115 51.5316 77.7901 52.8224 77.0454C52.9864 76.9511 53.1063 76.8064 53.2762 76.7463V79.3623C52.9462 79.4579 52.6473 79.611 52.3057 79.6788C49.2478 80.2841 46.6527 78.2462 47.2141 75.0417C47.6841 72.3572 51.0351 71.1022 53.2762 72.5071V75.0507V75.0514Z" fill="#6F92E8"/>
<path d="M139.238 72.4347V75.0508C138.363 74.0799 136.434 73.9494 136.053 75.4377C135.613 77.1578 137.392 77.8386 138.735 77.0925C138.833 77.0376 139.184 76.7463 139.214 76.747C139.332 76.7489 139.238 76.8606 139.238 76.8671V79.3617C138.928 79.4611 138.637 79.6116 138.316 79.6782C135.557 80.2505 132.982 78.6111 133.11 75.6534C133.244 72.5504 136.626 71.0932 139.238 72.4341L139.238 72.4347Z" fill="#6F92E8"/>
<path d="M59.5969 72.1438V74.3238H58.0411V79.5558H55.0998L55.0266 79.4835V74.3238H53.544L53.4707 74.2515V72.2168L53.544 72.1438H59.5969Z" fill="#6F92E8"/>
<path d="M91.4448 68.4803C91.4448 67.6129 92.0952 67.0204 92.9052 67.0204C93.7113 67.0204 94.3616 67.6129 94.3616 68.4803C94.3616 69.3399 93.7113 69.9284 92.9052 69.9284C92.0952 69.9284 91.4448 69.3399 91.4448 68.4803ZM91.7447 68.4803C91.7447 69.1811 92.2509 69.6613 92.9052 69.6613C93.5711 69.6613 94.0656 69.1811 94.0656 68.4803C94.0656 67.7678 93.5711 67.2915 92.9052 67.2915C92.2509 67.2915 91.7447 67.7678 91.7447 68.4803ZM93.2517 69.1966L92.9324 68.6197H92.6559V69.1966H92.3093V67.6516H92.8273C93.2751 67.6516 93.5516 67.7368 93.5516 68.1395C93.5516 68.337 93.4581 68.4725 93.2712 68.5538L93.6373 69.1966H93.2517ZM93.205 68.1434C93.205 67.9885 93.0843 67.9265 92.8935 67.9265H92.6559V68.3525H92.9052C93.1232 68.3525 93.205 68.2789 93.205 68.1434Z" fill="#6F92E8"/>
</svg>
