<svg width="170" height="152" viewBox="0 0 170 152" fill="none" xmlns="http://www.w3.org/2000/svg">
<rect width="170" height="152" fill="#010101"/>
<path fill-rule="evenodd" clip-rule="evenodd" d="M84.0266 89.3562C81.2767 89.3562 78.7005 88.2676 76.8479 86.2718C74.9953 84.3063 73.9533 81.6151 73.9533 78.7122C73.9533 75.9 74.9664 73.2693 76.8479 71.334C78.7005 69.3988 81.2478 68.3404 84.0266 68.3404C86.7766 68.3404 89.3238 69.3988 91.2054 71.334C93.058 73.2693 94.0997 75.9 94.0997 78.7122C94.0997 81.6151 93.0869 84.3063 91.2054 86.2718C89.3238 88.2676 86.7766 89.3562 84.0266 89.3562ZM126.057 89.3562C123.307 89.3562 120.76 88.2676 118.878 86.2718C117.026 84.3063 116.013 81.6151 116.013 78.7122C116.013 75.9 117.026 73.2693 118.907 71.3643C120.76 69.429 123.307 68.3707 126.057 68.3707C128.807 68.3707 131.354 69.429 133.236 71.3643C135.088 73.2995 136.131 75.9 136.131 78.7122C136.131 81.6151 135.117 84.2761 133.236 86.2718C131.383 88.2676 128.836 89.3562 126.057 89.3562ZM34.8755 89.084V72.4528H33.1387V68.7033H50.3329C51.7802 68.7033 52.3591 69.3081 52.3591 70.82V89.0537H48.104V72.4528H39.0148L39.0727 73.36C39.1306 74.1764 39.1306 74.8417 39.1306 75.3558V89.084H34.8755ZM57.0195 89.0235V72.4226H55.2828V68.673H65.4719C69.206 68.673 71.7823 71.455 71.7823 75.4162C71.7823 78.1074 70.5665 80.8289 68.685 82.3408C67.064 83.6411 62.8667 85.3647 61.6221 85.8787L61.101 86.0904V89.0235H57.0195ZM99.3973 88.7816C97.9211 88.7816 97.2265 88.0559 97.2265 86.544V72.2714H95.4602V68.4916H103.623C106.634 68.4916 109.181 69.429 110.976 71.1828C112.829 72.9971 113.755 75.5069 113.755 78.6215C113.755 84.8808 109.876 88.7816 103.623 88.7816H99.3973ZM126.057 72.4226C122.815 72.4226 120.268 75.2045 120.268 78.7425C120.268 82.4315 122.815 85.3345 126.057 85.3345C129.299 85.3345 131.846 82.4315 131.846 78.7425C131.875 75.2045 129.328 72.4226 126.057 72.4226ZM84.0266 72.3924C80.7846 72.3924 78.2084 75.1743 78.2084 78.7122C78.2084 82.4013 80.7557 85.3042 84.0266 85.3042C87.2687 85.3042 89.8449 82.4013 89.8449 78.7122C89.8159 75.1743 87.2687 72.3924 84.0266 72.3924ZM101.424 85.0018H103.421C107.213 85.0018 109.384 82.6734 109.384 78.6215C109.384 74.5998 107.213 72.3017 103.421 72.3017H101.424V85.0018ZM61.0721 73.3298C61.101 74.1764 61.13 74.8417 61.13 75.3255V81.7663L62.2589 81.2824C63.6483 80.6777 65.4719 79.831 66.2824 79.1053C67.4403 78.0772 67.614 76.3536 67.614 75.4464C67.614 73.5717 66.6008 72.4528 64.922 72.4528H61.0431L61.0721 73.3298Z" fill="#6F92E8"/>
</svg>
