<svg width="170" height="152" viewBox="0 0 170 152" fill="none" xmlns="http://www.w3.org/2000/svg">
<rect width="170" height="152" fill="#010101"/>
<path d="M56.9703 65.9363C57.6705 66.812 58.2738 67.7712 58.7478 68.7825L45.2605 78.4053L39.6265 74.9857V70.878L45.2605 74.2976L56.9703 65.9363Z" fill="#6F92E8"/>
<path d="M77.8723 74.6326C75.8039 74.1634 74.0265 73.7568 74.0265 72.3598C74.0265 70.4936 76.4072 70.2851 77.4198 70.2851C78.831 70.2851 79.639 70.4728 80.6947 70.9419L83.5387 68.9089C81.9982 67.9602 79.6821 67.22 77.4414 67.22C72.0874 67.22 70.1699 69.9828 70.1699 72.5579C70.1699 76.2694 73.5094 77.0513 76.4503 77.729C78.5186 78.2086 80.3069 78.6256 80.3069 80.0435C80.3069 80.7733 79.8544 81.9931 76.8597 81.9931C74.8667 81.9931 72.6907 81.3154 71.1394 80.2207L69.8359 83.0982C71.4087 84.2971 74.145 85.0582 76.8381 85.0582C81.2872 85.0582 84.1527 82.9731 84.1527 79.7516C84.1635 76.0713 80.824 75.3103 77.8723 74.6326Z" fill="#6F92E8"/>
<path d="M100.441 75.8734L100.257 75.8108L100.43 75.717C101.895 74.9455 102.703 73.611 102.703 71.9638C102.703 69.1801 100.268 67.5225 96.1854 67.5225H87.7505V84.7664H96.6917C101.141 84.7664 103.586 83.1088 103.586 80.0958C103.565 78.0419 102.434 76.5094 100.441 75.8734ZM91.5855 70.3895H95.6791C98.2645 70.3895 98.8032 71.5363 98.8032 72.4955C98.8032 73.8821 97.7259 74.6015 95.6791 74.6015H91.5855V70.3895ZM95.6791 74.6015H91.5855H95.6791ZM96.3793 81.889H91.5855V77.4789H96.3793C98.5662 77.4789 99.6757 78.2087 99.6757 79.6892C99.6757 81.1592 98.5985 81.889 96.3793 81.889Z" fill="#6F92E8"/>
<path d="M116.589 70.3895L120.618 67.5225H107.152V84.756H120.618V81.889H110.998V77.4789H119.206V74.6015H110.998V70.3895H116.589Z" fill="#6F92E8"/>
<path d="M139.394 84.7559L135.484 79.1574C137.789 78.1878 139.125 76.2591 139.125 73.6839C139.125 69.8786 136.216 67.512 131.541 67.512H124.205V84.7559H128.051V79.8768H131.541C131.649 79.8768 131.757 79.8768 131.864 79.8768L135.279 84.7664L139.394 84.7559ZM128.04 70.3894H131.444C133.911 70.3894 135.269 71.5675 135.269 73.6944C135.269 75.8212 133.911 76.9993 131.444 76.9993H128.04V70.3894Z" fill="#6F92E8"/>
<path d="M60.7751 76.2481C60.7751 75.3827 60.6996 74.5278 60.5381 73.6834L57.3494 75.9562C57.3494 76.05 57.3494 76.1542 57.3494 76.2481C57.3494 82.3366 52.254 87.2784 45.952 87.2784C39.65 87.2784 34.5654 82.3471 34.5654 76.2481C34.5654 70.1595 39.6608 65.2178 45.9628 65.2178C48.2573 65.2178 50.498 65.885 52.394 67.1361L55.2703 65.0822C48.9037 60.1196 39.5854 61.0892 34.4469 67.2403C29.3084 73.3915 30.3102 82.42 36.6768 87.3826C43.0434 92.3557 52.3617 91.3861 57.4894 85.235C59.6116 82.6911 60.7751 79.5217 60.7751 76.2481Z" fill="#6F92E8"/>
</svg>
