<svg width="170" height="152" viewBox="0 0 170 152" fill="none" xmlns="http://www.w3.org/2000/svg">
<rect width="170" height="152" fill="#010101"/>
<path d="M28.3574 58H33.2933V68.0214L40.3578 58H46.2809L38.1676 68.6128L46.9289 81H40.6663L33.2933 70.0586V81H28.3574V58Z" fill="#6F92E8"/>
<path d="M60.8572 58C67.2373 58 72.0001 62.4158 72.0001 69.5C72.0001 76.2348 67.2373 81 60.8572 81C54.4771 81 49.7144 76.5842 49.7144 69.5C49.7144 63.0512 54.1776 58 60.8572 58ZM60.8572 76.2348C64.841 76.2348 66.9079 73.2488 66.9079 69.5C66.9079 65.4338 64.2422 62.7652 60.8572 62.7652C57.3827 62.7652 54.8065 65.4338 54.8065 69.5C54.8065 73.3121 57.5023 76.2348 60.8572 76.2348Z" fill="#6F92E8"/>
<path d="M74.7856 58H79.483L85.785 67.6929L91.737 58H96.1428V81H91.4746V66.3458L85.7852 75.3158H85.1142L79.4539 66.4443V81H74.7856V58Z" fill="#6F92E8"/>
<path d="M109.607 58C115.721 58 120.285 62.4158 120.285 69.5C120.285 76.2348 115.721 81 109.607 81C103.493 81 98.9282 76.5842 98.9282 69.5C98.9282 63.0512 103.205 58 109.607 58ZM109.607 76.2348C113.425 76.2348 115.405 73.2488 115.405 69.5C115.405 65.4338 112.85 62.7652 109.607 62.7652C106.277 62.7652 103.808 65.4338 103.808 69.5C103.808 73.3121 106.392 76.2348 109.607 76.2348Z" fill="#6F92E8"/>
<path d="M140.715 78.4269C139.469 79.92 136.771 81 133.954 81C127.52 81 123.072 76.4253 123.072 69.5C123.072 63.1147 126.778 58 133.924 58C136.682 58 139.024 59.0166 140.27 60.319L138.164 64.1312C137.038 63.4005 135.881 62.7652 133.924 62.7652C130.722 62.7652 128.113 65.1161 128.113 69.5C128.113 73.4391 130.663 76.2348 134.399 76.2348C135.881 76.2348 137.512 75.7266 138.906 74.6148L140.715 78.4269Z" fill="#6F92E8"/>
<path d="M61.7856 85H67.3571V87.143H64.0143V95H61.7856V85Z" fill="#6F92E8"/>
<path d="M69.2144 94.9998V85.0283C69.7973 85.0283 71.6059 85 72.413 85C75.5966 85 76.6429 86.5811 76.6429 88.3048C76.6429 90.0854 75.193 91.6523 72.7718 91.6523C72.5476 91.6523 71.9795 91.6523 71.6059 91.6096V95L69.2144 94.9998ZM71.6059 87.165V89.4443C71.9496 89.4869 72.3531 89.5155 72.697 89.5155C73.3248 89.5155 74.1019 89.2589 74.1019 88.2904C74.1019 87.4073 73.5041 87.1367 72.652 87.1367C72.3383 87.1367 72.099 87.1508 71.6059 87.165Z" fill="#6F92E8"/>
<path d="M82.724 92.6286C82.0695 94.1572 81.2514 95 79.9288 95C79.3697 95 78.7424 94.7713 78.4835 94.5571L79.2471 92.6144C79.5062 92.8 79.6425 92.8572 79.9152 92.8572C80.2698 92.8572 80.5016 92.743 80.6242 92.4573L80.747 92.1573L76.6426 85H79.1107L81.7968 89.8857L83.733 85H85.9283L82.724 92.6286Z" fill="#6F92E8"/>
<path d="M94.4417 87.143H90.4153V95H87.7856V85H97.0714V95H94.4417V87.143Z" fill="#6F92E8"/>
<path d="M105.584 87.143H101.558V95H98.9282V85H108.214V95H105.584V87.143Z" fill="#6F92E8"/>
</svg>
