<svg width="170" height="152" viewBox="0 0 170 152" fill="none" xmlns="http://www.w3.org/2000/svg">
<rect width="170" height="152" fill="#010101"/>
<path d="M35.0649 85.1978C37.8834 85.1978 39.3656 81.8972 40.6615 77.4342H40.8697C40.3476 81.2925 40.5155 85.1978 43.626 85.1978C46.4243 85.1978 47.7605 81.8739 48.9288 77.4342H49.137C48.5948 81.2184 48.7408 85.1978 51.9353 85.1978C54.7336 85.1978 56.2998 81.946 56.9041 77.4575H54.9418C54.7117 78.4524 54.3156 79.4238 53.5837 79.4238C52.0595 79.4238 52.8955 76.4627 53.5636 72.7506L54.5238 67.3648H49.8253C49.8253 67.3648 47.3409 79.4238 45.3785 79.4238C43.9382 79.4238 44.6483 76.1233 45.2526 72.7018L46.1927 67.3628H41.4941C40.6179 71.3656 38.7596 79.4219 37.0256 79.4219C36.4616 79.4219 36.3155 79.0103 36.3155 78.4758C36.3155 78.1364 36.3994 77.7716 36.5035 77.4575H32.2028C31.9729 78.5245 31.8486 79.5448 31.8486 80.5884C31.8486 83.2081 32.6846 85.1978 35.0649 85.1978ZM59.4942 85.1978C60.7263 85.1978 61.7084 84.082 61.7084 82.6503C61.7084 81.2184 60.7263 80.1027 59.4942 80.1027C58.2621 80.1027 57.2801 81.2184 57.2801 82.6503C57.2801 84.082 58.2621 85.1978 59.4942 85.1978ZM72.21 79.3985C72.21 80.6118 71.4379 81.1463 70.5817 81.1463H67.5752V77.6039H70.6036C71.5636 77.6039 72.2115 78.2827 72.2115 79.3985H72.21ZM67.5752 71.0516H70.3314C71.1254 71.0516 71.7519 71.5607 71.7519 72.6296C71.7519 73.6986 71.0215 74.2077 70.3314 74.2077H67.5752V71.0535V71.0516ZM73.4001 75.6863C74.528 75.1772 75.6544 74.0127 75.6544 71.8045C75.6544 68.9897 73.8383 67.3648 71.0399 67.3648H63.7311V84.835H71.1223C73.9625 84.835 76.1129 83.2335 76.1129 79.9817C76.1129 77.7014 74.9428 76.1974 73.3985 75.6375V75.6863H73.4001ZM134.246 76.1233C134.246 78.5987 132.868 80.8302 130.362 80.8302C127.855 80.8302 126.373 78.6475 126.373 76.0745C126.373 73.5016 127.751 71.3675 130.258 71.3675C132.764 71.3675 134.246 73.5503 134.246 76.1233ZM122.469 76.0999C122.469 81.3647 125.893 85.1997 130.32 85.1997C134.746 85.1997 138.15 81.3179 138.15 76.0999C138.15 70.8818 134.726 67 130.3 67C125.873 67 122.469 70.8818 122.469 76.0999ZM102.674 71.6114V80.5884H98.1215C98.7698 78.9634 99.0819 75.8327 99.0819 71.8045V71.6094H102.672L102.674 71.6114ZM106.517 80.5884V67.3628H95.4708V68.6971C95.4708 74.6895 95.2208 79.2268 94.051 80.5864H92.4849V87.5991H96.327V84.833H104.866V87.5991H108.709V80.5864H106.517V80.5884ZM114.117 80.5884V78.0154H120.424V74.0127H114.117V71.6114H121.008V67.3648H110.275V84.835H121.237V80.5884H114.116H114.117ZM87.2235 67.3648L81.7327 77.2898V67.3648H77.8904V84.835H81.7327L87.2235 74.9119V84.835H91.0661V67.3628H87.2235V67.3648Z" fill="#6F92E8"/>
</svg>
