<svg width="170" height="152" viewBox="0 0 170 152" fill="none" xmlns="http://www.w3.org/2000/svg">
<rect width="170" height="152" fill="#010101"/>
<path fill-rule="evenodd" clip-rule="evenodd" d="M31.6416 70.1211H34.3703V74.4342H37.8686V70.1211H40.5973V81.7332H37.8686V77.3372H34.3703V81.7332H31.6416V70.1211ZM44.0956 70.1211H52.0018V72.8583H46.8243V74.6001H51.5121V77.1713H46.8243V78.9961H52.0718V81.7332H44.0956V70.1211ZM55.2902 70.1211H57.809L61.8671 76.259V70.1211H64.5258V81.7332H62.1469L57.949 75.3466V81.7332H55.2902V70.1211ZM68.0941 70.1211H71.8723C75.3706 70.1211 77.3996 72.5265 77.3996 75.9272C77.3996 79.2449 75.3706 81.7332 71.8023 81.7332H68.0941V70.1211ZM71.8723 78.9132C73.4815 78.9132 74.601 77.8349 74.601 75.9272C74.601 74.1024 73.5515 72.9412 71.8723 72.9412H70.8228V78.9132H71.8723ZM80.6181 70.1211H88.5243V72.8583H83.3468V74.6001H88.0345V77.1713H83.3468V78.9961H88.5942V81.7332H80.6181V70.1211ZM91.7427 70.1211H96.3605C97.8298 70.1211 98.8793 70.6188 99.579 71.3653C100.139 72.0288 100.419 72.9412 100.419 74.1024C100.419 75.8442 99.6489 77.0884 98.3895 77.669L100.698 81.7332H97.5499L95.5909 78.2496H94.4015V81.7332H91.6728V70.1211H91.7427ZM96.2905 75.6784C97.2001 75.6784 97.7598 75.1807 97.7598 74.2683C97.7598 73.3559 97.2001 72.8583 96.2905 72.8583H94.5414V75.6784H96.2905ZM102.867 80.0744L104.407 77.9178C105.386 78.8302 106.436 79.3279 107.555 79.3279C108.255 79.3279 108.675 78.9961 108.675 78.4984C108.675 78.0008 108.325 77.7519 106.995 77.4202C104.896 76.8396 103.287 76.176 103.287 73.7707C103.287 71.6141 104.756 70.0382 107.065 70.0382C108.745 70.0382 110.004 70.5359 111.123 71.6141L109.794 73.8536C108.884 73.1071 107.905 72.6924 107.065 72.6924C106.436 72.6924 106.086 73.0242 106.086 73.4389C106.086 73.9365 106.436 74.1854 107.765 74.6001C110.004 75.1807 111.403 76.0101 111.403 78.2496C111.403 80.655 109.794 82.065 107.415 82.065C105.736 81.9821 104.127 81.3185 102.867 80.0744ZM114.272 75.9272C114.272 72.6095 116.511 69.8723 119.589 69.8723C122.598 69.8723 124.837 72.5265 124.837 75.9272C124.837 79.2449 122.598 81.9821 119.519 81.9821C116.511 81.9821 114.272 79.3279 114.272 75.9272ZM122.038 75.9272C122.038 74.2683 120.989 72.7753 119.519 72.7753C118.05 72.7753 117.071 74.1854 117.071 75.9272C117.071 77.5861 118.12 79.079 119.589 79.079C121.059 79.079 122.038 77.669 122.038 75.9272ZM128.055 70.1211H130.574L134.632 76.259V70.1211H137.291V81.7332H134.912L130.714 75.3466V81.7332H128.055V70.1211Z" fill="#6F92E8"/>
</svg>
