<svg width="170" height="152" viewBox="0 0 170 152" fill="none" xmlns="http://www.w3.org/2000/svg">
<rect width="170" height="152" fill="#010101"/>
<path d="M43.7557 58.5578C50.4816 58.1414 54.2623 61.0579 58.5894 65.0411C61.9883 68.1694 64.0328 71.2081 63.8239 75.7395C63.6042 80.4908 61.0425 83.0673 57.4623 86.2111C54.1044 89.1602 51.2093 91.4633 46.1803 91.7092C40.8982 91.9678 37.7333 90.5447 34.0228 87.4334C30.3432 84.3481 26.5842 81.1398 26.2859 76.3476C25.8815 69.8369 29.2954 66.8064 34.2425 62.6802C36.9905 60.3882 39.863 58.7993 43.7557 58.5585V58.5578ZM43.693 60.8912C38.9957 61.2149 35.9645 64.2847 32.9257 67.1234C30.7358 69.1687 29.0289 71.0933 28.8518 74.0675C28.5802 78.63 30.1059 80.7568 33.5841 83.8221C35.3562 85.3837 37.7759 87.6764 40.0293 88.5528C44.2144 90.1803 49.4907 89.6321 52.9188 86.9053C54.5405 85.6156 56.3168 84.0414 57.8074 82.628C59.8861 80.656 61.0676 78.6663 61.2514 75.9032C61.5405 71.5718 59.5695 69.2391 56.3661 66.3463C52.4501 62.8106 49.7664 60.4734 43.6939 60.892L43.693 60.8912Z" fill="#6F92E8"/>
<path d="M100.918 70.3758V80.8489C100.918 81.7179 100.024 82.9461 99.1588 83.3454C98.4278 83.6832 96.8144 83.6365 95.9388 83.6572C95.4483 83.6691 94.9537 83.6439 94.4632 83.6543L95.2236 81.8282C95.8636 81.7349 96.7868 81.8097 97.3817 81.603C97.6006 81.5275 97.9097 81.0156 97.9097 80.8489V79.9881C97.1753 79.8807 96.4267 79.963 95.6856 79.9318C95.0865 79.9067 94.2368 79.8837 93.6879 79.7029C92.7538 79.3955 91.8205 78.3755 91.5615 77.5324C91.3384 76.808 91.3819 74.3471 91.4529 73.513C91.579 72.0292 92.8641 70.7854 94.4992 70.4913C96.6322 70.3869 98.7778 70.3639 100.918 70.3758ZM97.9724 77.8206V72.2929C97.9331 72.2381 97.8855 72.221 97.8153 72.2099C97.5371 72.1647 96.8152 72.1951 96.4969 72.2077C96.232 72.2181 95.8218 72.2425 95.5661 72.2714C95.0289 72.3336 94.6989 72.7574 94.5393 73.1944C94.312 73.8167 94.3103 76.2657 94.5577 76.8754C94.6646 77.1384 95.0757 77.6776 95.3848 77.7532C96.1326 77.9362 97.187 77.7554 97.9716 77.8214L97.9724 77.8206Z" fill="#6F92E8"/>
<path d="M126.985 65.6536V70.3761L130.149 70.4324C131.95 70.5694 133.283 71.6339 133.255 73.2903L133.315 79.9321H130.245C130.225 78.7565 130.271 77.5779 130.247 76.4016C130.245 76.2705 130.183 76.149 130.18 76.0171C130.152 74.8852 130.616 72.6399 128.995 72.2895C128.916 72.2725 128.509 72.2088 128.459 72.2088H126.987V79.9314H123.917V65.6528H126.987L126.985 65.6536Z" fill="#6F92E8"/>
<path d="M144.845 79.9317L139.233 79.8784C137.342 79.9199 135.169 79.4517 135.007 77.4583C134.745 74.2373 138.815 74.5092 141.145 73.7899C141.614 73.6455 141.934 73.4662 141.895 72.9669C141.841 72.2758 141.19 72.2402 140.555 72.2069C139.525 72.152 138.474 72.2898 137.45 72.1535C137.336 72.0557 137.99 70.6312 138.074 70.4008C138.165 70.3475 139.618 70.3682 139.866 70.3734C140.772 70.3919 142.843 70.4045 143.57 70.7557C144.085 71.0038 144.698 71.5394 144.777 72.075C144.829 72.4261 144.834 73.0225 144.847 73.4017C144.928 75.5737 144.78 77.7598 144.845 79.9325V79.9317ZM138.61 77.8205H141.775C141.736 77.0575 141.853 76.2701 141.711 75.5145C141.696 75.4344 141.756 75.4241 141.618 75.43C140.825 75.6396 140.02 75.8389 139.252 76.1108C139.005 76.1982 138.333 76.4152 138.171 76.5419C137.689 76.9175 138.059 77.722 138.611 77.8205H138.61Z" fill="#6F92E8"/>
<path d="M83.1838 76.2094C83.0526 78.571 85.9352 77.528 87.5435 77.928C87.5903 77.9843 87.5703 78.0502 87.5586 78.1124C87.5001 78.4125 87.0832 79.2829 86.9278 79.6125C86.8994 79.6733 86.8325 79.8659 86.7757 79.8785C84.5273 79.757 82.03 80.4637 80.7291 78.3576C79.7298 76.7398 79.8885 73.6218 80.9639 72.0469C82.0392 70.472 83.7737 70.2053 85.7873 70.3172C87.5444 70.415 88.8386 71.4321 89.3207 72.907C89.5705 73.67 89.7443 75.236 89.6407 76.0175C89.6298 76.0983 89.6332 76.1605 89.5438 76.2094H83.1838ZM86.881 74.5426V73.6255C86.881 73.5507 86.698 73.1551 86.642 73.0596C85.9953 71.9625 84.0386 71.9491 83.4111 73.0485C83.3635 73.1314 83.1847 73.5114 83.1847 73.57V74.5419H86.8818L86.881 74.5426Z" fill="#6F92E8"/>
<path d="M112.322 76.2093H105.868C105.866 76.859 106.068 77.6502 106.909 77.7591C107.969 77.8954 109.126 77.7642 110.192 77.9324C110.275 78.0087 109.568 79.7266 109.4 79.9251C108.902 79.9295 108.4 79.9451 107.902 79.9347C107.117 79.9184 105.572 79.9281 104.908 79.6443C102.705 78.7043 102.661 76.2271 102.798 74.3492C103.023 71.2483 105.817 69.6897 109.153 70.4357C112.165 71.1091 112.411 73.8848 112.322 76.2101V76.2093ZM109.628 74.5426C109.74 73.0714 108.721 71.8009 106.935 72.3491C105.953 72.6506 105.746 73.7299 105.743 74.5426H109.628Z" fill="#6F92E8"/>
<path d="M77.4183 70.3758C77.4918 70.4418 76.8092 72.0663 76.7256 72.1234C76.4892 72.2841 75.261 72.193 74.8775 72.2071C74.2141 72.3863 73.0151 72.0411 72.5656 72.6019C72.2197 73.0338 72.2849 73.6694 72.9048 73.8494C74.2826 74.2501 75.967 73.6768 77.2754 74.5302C79.3032 75.8524 78.9456 78.8837 76.4767 79.6816C75.53 79.9875 73.1179 79.9164 71.9991 79.9342C71.3207 79.9453 70.6347 79.943 69.958 79.906L70.7208 77.8844C72.0768 77.8666 73.4412 77.8585 74.7889 77.7407C75.4782 77.7081 75.6562 76.8473 75.3412 76.4117C75.0095 75.9539 73.3861 76.0836 72.8121 76.0428C70.7007 75.8917 69.2327 74.9339 69.3973 72.9049C69.587 70.5662 72.4353 70.3358 74.5007 70.3736L77.4175 70.3758H77.4183Z" fill="#6F92E8"/>
<path d="M113.701 78.0713L118.402 72.3495L118.308 72.265L114.077 72.2087L114.837 70.3834L121.973 70.4308L121.988 72.3058L117.459 77.7364L117.553 77.8209L121.849 77.9024C121.944 77.9646 121.88 77.9727 121.864 78.0283C121.689 78.6483 121.342 79.3387 121.064 79.9321H113.701V78.0713Z" fill="#6F92E8"/>
<path d="M109.252 90.5434H105.961C104.375 90.5434 102.971 89.1433 102.857 87.7951C102.623 85.0268 102.831 82.5407 106.585 82.3733L110.026 82.3281L110.101 82.3726C110.139 83.4882 110.144 84.6194 110.131 85.7394C110.11 87.6032 110.202 89.7434 110.069 91.5731C109.993 92.6198 109.451 93.4391 108.377 93.9065C107.376 94.3421 106.167 94.0873 105.084 94.1547C104.771 94.1021 104.879 93.6584 105.253 93.5265C106.165 93.205 107.301 93.5784 108.306 93.0109C108.851 92.7028 109.251 91.9761 109.251 91.4042V90.5434H109.252ZM109.252 83.2097C107.514 83.3341 104.894 82.7022 104.02 84.4882C103.481 85.5913 103.549 88.0536 104.4 89.0396C104.914 89.6359 105.74 89.6715 106.527 89.7093C107.423 89.753 108.353 89.6782 109.252 89.7093V83.2089L109.252 83.2097Z" fill="#6F92E8"/>
<path d="M138.641 93.8772H137.827V82.321L141.119 82.3744C144.644 82.3951 145.005 85.1775 144.785 87.6843C144.682 88.8547 143.372 90.5437 141.932 90.5437H138.736L138.642 90.6267V93.8772H138.641ZM139.066 83.2248C138.925 83.2441 138.711 83.2596 138.703 83.4033L138.669 89.6577C138.714 89.7148 138.791 89.7052 138.858 89.7126C139.597 89.7911 141.227 89.74 141.978 89.64C142.974 89.5074 143.33 88.8496 143.841 88.1806C143.75 86.7554 144.312 83.6559 142.09 83.29C141.411 83.1781 139.737 83.1329 139.065 83.2241L139.066 83.2248Z" fill="#6F92E8"/>
<path d="M122.587 82.2805C126.315 82.185 127.481 85.0451 126.842 87.8875C126.57 89.1002 125.256 90.4536 123.813 90.5914C121.564 90.8069 119.7 90.3573 118.828 88.3579C118.452 87.4956 118.514 85.1407 118.953 84.2821C119.597 83.0228 121.054 82.3198 122.587 82.2805ZM122.649 83.1146C119.896 83.1939 119.31 84.9355 119.463 87.0726C119.616 89.2113 121.373 90.0358 123.626 89.7587C126.306 89.4298 126.743 85.6703 125.346 84.0791C124.719 83.3658 123.636 83.0858 122.649 83.1139V83.1146Z" fill="#6F92E8"/>
<path d="M131.404 90.5439C129.854 90.4327 128.708 89.3808 128.612 88.0185C128.509 86.5725 128.528 84.5783 128.612 83.1242C128.626 82.8834 128.723 82.636 128.681 82.379L129.429 82.3204C129.375 82.6308 129.48 82.9434 129.494 83.2353C129.576 84.8984 129.344 86.6992 129.561 88.343C129.63 88.8593 130.193 89.3682 130.731 89.5282C131.144 89.6512 131.831 89.6934 132.277 89.7127C133.108 89.7483 133.95 89.6808 134.782 89.7112L134.88 82.376L135.82 82.3204V90.5431C134.386 90.4668 132.821 90.6453 131.402 90.5431L131.404 90.5439Z" fill="#6F92E8"/>
<path d="M117.523 82.3766C117.381 82.8374 117.409 83.1544 116.801 83.2092C115.53 83.324 113.477 82.9114 113.153 84.4745C113.132 84.5708 113.074 84.9486 113.074 85.016V90.6L112.132 90.4519C112.228 88.6658 112.013 86.7887 112.132 85.0138C112.229 83.5515 113.371 82.3773 115.111 82.3773H117.524L117.523 82.3766Z" fill="#6F92E8"/>
<path d="M44.1943 62.7256C49.7521 62.3315 52.7433 65.2524 56.1773 68.5689C60.151 72.4061 60.1752 77.519 56.2082 81.3777C54.5405 83.0001 51.4165 85.8573 49.2425 86.758C45.5044 88.307 41.0845 87.7403 38.0023 85.3498C35.2802 83.2386 31.8128 80.4851 31.1285 77.2212C30.0348 72.0054 33.1922 69.3934 37.0306 66.1525C39.1887 64.3294 41.0461 62.9493 44.1943 62.7256ZM44.6956 64.8916C42.3963 65.0442 40.9876 65.8095 39.3491 67.1518C38.161 68.1252 36.7716 69.3445 35.6829 70.4016C32.7954 73.2084 32.5196 77.0412 35.3387 79.988C36.688 81.3977 39.9148 84.2964 41.7922 84.9335C46.8354 86.644 50.0421 83.9497 53.2621 80.9881C55.4278 78.9969 56.8532 77.4694 56.6794 74.5122C56.5441 72.2076 55.2741 70.8505 53.5755 69.2637C51.0639 66.9169 48.6819 64.6272 44.6948 64.8916H44.6956Z" fill="#6F92E8"/>
<path d="M47.5913 83.0428C47.5236 82.6465 46.765 81.3953 46.8502 81.0849C46.8786 80.9797 47.486 80.3952 47.6214 80.2641C48.6374 79.2759 51.6127 77.0239 51.9494 75.8787C52.6679 73.4341 50.2057 71.3318 47.4526 71.9474C46.1701 72.2341 44.7063 73.9008 43.7062 74.6816C43.5892 74.7727 43.011 75.2453 42.8915 75.1535L42.1421 73.1785L42.1972 73.0682C43.5224 71.9807 44.8099 70.5177 46.5753 70.0028C50.2307 68.9361 54.1585 71.1955 54.3582 74.626C54.5144 77.3054 53.0021 78.3707 51.1022 80.1271C50.285 80.8827 49.3676 81.7301 48.502 82.4331C48.3851 82.528 47.6841 83.1021 47.593 83.0428H47.5913Z" fill="#6F92E8"/>
<path d="M42.368 67.3806C42.4558 67.3613 42.4691 67.4206 42.5017 67.4702C42.5961 67.6132 43.2863 69.2399 43.2587 69.3362C42.2118 70.3511 41.0337 71.2593 39.976 72.2638C39.2699 72.9342 38.1086 73.9661 38.0033 74.9039C37.7777 76.9255 39.4195 78.5745 41.733 78.5456C43.9914 78.5175 45.3224 76.1885 47.0561 75.2084C47.2032 75.2373 47.8039 76.9752 47.8891 77.23C46.6676 78.2708 45.3441 79.762 43.7216 80.3072C38.5539 82.0421 33.6118 76.9492 36.4259 72.7831C37.2497 71.5623 40.4881 68.7695 41.7924 67.7628C41.8851 67.6917 42.292 67.3872 42.368 67.3813V67.3806Z" fill="#6F92E8"/>
</svg>
