<svg width="170" height="152" viewBox="0 0 170 152" fill="none" xmlns="http://www.w3.org/2000/svg">
<rect width="170" height="152" fill="#010101"/>
<path fill-rule="evenodd" clip-rule="evenodd" d="M50.0524 50.0023H56.2738L53.0165 73.1354L52.9601 73.4624L52.7278 74.9638L53.1502 73.6029L53.2957 73.2206L57.107 63.114H63.1969L57.5341 76.3362L59.2989 91.5572H52.932L52.3687 80.6354L52.3453 79.9929L52.3195 78.031L52.1294 79.4633L52.0824 79.7903L50.4303 91.5549H44L50.0548 50M65.0861 63.1163H71.8426L72.2721 74.8878L72.2861 75.2539L72.258 76.6701L72.5631 74.8763L74.4593 63.1163H79.6551L75.2948 91.5595H69.1977L68.5735 78.4547L68.5571 78.1116L68.5805 76.6701L68.3247 78.4938L66.2924 91.5595H60.7234L65.0861 63.1163ZM106.958 63.1163H113.24L109.413 86.3645C108.77 90.2976 106.094 91.6792 100.497 91.4489C94.6231 91.2072 94.6841 87.4514 94.9071 85.7866C96.5099 77.08 97.7678 69.5225 98.6854 63.1163H105.069L101.302 85.8326C101.236 86.1481 101.401 86.7514 101.985 86.8642C102.71 87.0001 103.067 86.4659 103.133 86.0859L106.956 63.1163M115.798 63.1163H126L125.38 67.6273H121.569L120.743 73.2897H124.453L123.719 78.0379H120.112L116.211 102H109.715L115.796 63.114M85.7686 81.2571L88.857 69.0228L88.9931 68.4816L89.4883 66.3792L89.1621 68.5392L89.094 69.0987L87.7024 81.2548H85.7709M83.1707 91.5595L84.5811 85.9915H87.1555L86.5243 91.5595H92.5556L94.2265 63.1163H85.8765L77.0596 91.5595H83.1707Z" fill="#6F92E8"/>
</svg>
