<svg width="170" height="152" viewBox="0 0 170 152" fill="none" xmlns="http://www.w3.org/2000/svg">
<rect width="170" height="152" fill="#010101"/>
<path d="M34.7065 65.6309L34.8691 68.0799H34.935C35.8796 66.1648 37.213 65.2766 38.9067 65.2766C41.0552 65.2766 42.2019 66.2342 42.9444 68.0799H43.0081C44.3437 65.844 45.9056 65.2766 47.2742 65.2766C51.3338 65.2766 52.1246 68.3289 52.1246 71.4842V82.3073H46.9161V72.7985C46.9161 71.2735 46.9799 69.782 45.4838 69.782C43.9197 69.782 43.6605 71.1299 43.6605 72.6907V82.3073H38.4498V72.7985C38.4498 71.2735 38.5157 69.782 37.0175 69.782C35.4556 69.782 35.1942 71.1299 35.1942 72.6907V82.3073H30.0516V72.3005C28.7489 72.3364 27.3496 71.5201 27.4155 69.3918C25.9502 69.2865 24.9727 68.1853 24.9727 66.1289V65.6309H34.7065Z" fill="#6F92E8"/>
<path d="M58.8029 82.5898C56.3293 82.5898 53.9194 81.3928 53.9194 77.6941C53.9194 71.0604 63.036 74.254 63.036 70.7061C63.036 69.8898 62.5791 69.3918 61.4082 69.3918C60.2374 69.3918 59.4553 70.1364 59.1939 71.6972L54.5389 70.8833C55.3452 66.9524 58.1131 65.2766 61.5972 65.2766C65.6128 65.2766 68.2489 66.6962 68.2489 71.4506V76.2386C68.2489 76.7724 68.3478 80.993 68.4445 82.3073H63.7785L63.583 80.4615H63.5171C62.4187 81.953 60.7491 82.5898 58.7962 82.5898H58.8029ZM59.2532 77.1267C59.2532 78.1202 59.9122 78.6517 60.8151 78.6517C62.2803 78.6517 63.0931 77.6223 63.0931 76.0183V74.6777C61.7267 75.8483 59.2532 75.1757 59.2532 77.1267Z" fill="#6F92E8"/>
<path d="M77.7107 84.4714C79.3714 84.4714 80.2173 83.7269 80.2173 81.5986V79.6835H80.1533C79.3714 80.8541 77.8403 81.7423 76.1488 81.7423C72.1441 81.7423 70.2549 78.2638 70.2549 73.5454C70.2549 68.8963 72.4055 65.2766 76.3773 65.2766C78.1347 65.2766 79.5667 66.4473 80.3163 67.4767H80.3798L80.4788 65.6309H85.4278V79.8224C85.4278 86.0682 82.7566 88.5866 77.647 88.5866C74.8461 88.5866 72.1441 87.5213 70.8371 83.9735L75.2305 82.7765C75.6853 83.9471 76.4015 84.481 77.7041 84.481L77.7107 84.4714ZM80.3734 73.5884C80.3734 70.9551 79.5931 69.6504 77.9985 69.6504C76.3714 69.6504 75.5572 70.9631 75.5557 73.5884C75.5557 76.32 76.3707 77.6319 77.9985 77.6319C79.5931 77.6319 80.3734 76.32 80.3734 73.5884Z" fill="#6F92E8"/>
<path d="M97.8312 65.2766C101.445 65.2766 102.3 68.2571 102.3 71.7403V82.3073H97.0822V72.8344C97.0822 71.307 97.0165 69.782 95.2591 69.782C93.5985 69.782 93.2401 71.307 93.2401 72.8703V82.3073H88.0317V65.6309H92.9786L93.1104 67.9722H93.1744C94.4438 66.1289 95.9091 65.2766 97.8312 65.2766Z" fill="#6F92E8"/>
<path d="M109.289 82.661C105.739 82.661 104.896 79.6805 104.896 76.1973V65.6304H110.104V75.1033C110.104 76.6282 110.17 78.1556 111.862 78.1556C113.459 78.1556 113.817 76.6282 113.817 75.0674V65.6304H119.025V82.3067H114.074L113.942 79.9654H113.876C112.639 81.8088 111.174 82.661 109.287 82.661" fill="#6F92E8"/>
<path d="M126.314 65.6309L126.476 68.0799H126.542C127.484 66.1648 128.879 65.2766 130.578 65.2766C132.758 65.2766 133.899 66.2342 134.648 68.0799H134.712C136.047 65.844 137.642 65.2766 139.011 65.2766C143.112 65.2766 143.894 68.3289 143.894 71.4842V82.3073H138.686V72.7985C138.686 71.2735 138.749 69.782 137.22 69.782C135.626 69.782 135.364 71.1299 135.364 72.6907V82.3073H130.156V72.7985C130.156 71.2735 130.219 69.782 128.69 69.782C127.095 69.782 126.834 71.1299 126.834 72.6907V82.3073H121.63V65.6309H126.314Z" fill="#6F92E8"/>
</svg>
